<?xml version="1.0" encoding="utf-8"?>
<!-- Generator: Adobe Illustrator 24.0.1, SVG Export Plug-In . SVG Version: 6.00 Build 0)  -->
<svg version="1.1" id="Layer_1" xmlns="http://www.w3.org/2000/svg" xmlns:xlink="http://www.w3.org/1999/xlink" x="0px" y="0px"
	 viewBox="0 0 1000 1000" style="enable-background:new 0 0 1000 1000;" xml:space="preserve">
<style type="text/css">
	.st0{fill:#1478C9;}
	
		.st1{opacity:0.5;fill:#232323;stroke:#232323;stroke-width:8;stroke-linecap:round;stroke-linejoin:round;stroke-miterlimit:10;enable-background:new    ;}
	.st2{fill:#43597A;}
	.st3{opacity:0.7;fill:#6A87AD;enable-background:new    ;}
	.st4{fill:#394E6B;}
	.st5{fill:none;stroke:#202454;stroke-width:8;stroke-linecap:round;stroke-linejoin:round;stroke-miterlimit:10;}
	.st6{fill:#2F3F56;}
	.st7{fill:none;stroke:#283356;stroke-linecap:round;stroke-linejoin:round;stroke-miterlimit:10;}
	.st8{opacity:0.8;}
	.st9{opacity:0.8;fill:#B4C7E7;enable-background:new    ;}
	.st10{fill:none;stroke:#22293F;stroke-width:5.9998;stroke-linecap:round;stroke-linejoin:round;stroke-miterlimit:9.9997;}
	.st11{fill:none;stroke:#202454;stroke-width:7.9997;stroke-linecap:round;stroke-linejoin:round;stroke-miterlimit:9.9997;}
	.st12{fill:none;stroke:#202454;stroke-width:5;stroke-linecap:round;stroke-linejoin:round;stroke-miterlimit:10;}
	.st13{fill:none;stroke:#707A99;stroke-width:3;stroke-linecap:round;stroke-linejoin:round;stroke-miterlimit:10;}
	.st14{opacity:0.4;}
	.st15{fill:#232323;stroke:#232323;stroke-width:8.0002;stroke-linecap:round;stroke-linejoin:round;stroke-miterlimit:10.0002;}
	.st16{fill:#232323;stroke:#232323;stroke-width:8;stroke-linecap:round;stroke-linejoin:round;stroke-miterlimit:10;}
	.st17{fill:none;stroke:#232323;stroke-width:8;stroke-linecap:round;stroke-linejoin:round;stroke-miterlimit:10;}
	.st18{opacity:0.5;fill:#6A87AD;enable-background:new    ;}
	.st19{fill:none;stroke:#202454;stroke-width:8.0002;stroke-linecap:round;stroke-linejoin:round;stroke-miterlimit:10.0002;}
	.st20{fill:#6A87AD;}
	.st21{fill:#334665;}
	.st22{opacity:0.4;fill:#43597A;enable-background:new    ;}
	.st23{fill:#81A0C1;}
	.st24{fill:#E2E9F2;}
</style>
<rect id="XMLID_72_" y="0" class="st0" width="1000" height="1000"/>
<g>
	<path id="XMLID_276_" class="st1" d="M678.2,377.2l-456.9,279c-14.1,8.6-32.6,4.2-41.2-10L22.5,388.1c-8.6-14.1-4.2-32.6,10-41.2
		L489.4,68c14.1-8.6,32.6-4.2,41.2,10l157.6,258.1C696.8,350.1,692.3,368.6,678.2,377.2z"/>
	<g>
		<path id="XMLID_74_" class="st2" d="M680.9,355.6L224,634.5c-14.1,8.6-32.6,4.2-41.2-10l-157.6-258c-8.6-14.1-4.2-32.6,10-41.2
			L492.1,46.4c14.1-8.6,32.6-4.2,41.2,10l157.6,258.1C699.5,328.5,695.1,347,680.9,355.6z"/>
		<path id="XMLID_148_" class="st3" d="M484.6,50.9l-9.9,6.1c18.3-11.2,42.2-5.4,53.4,12.9l148.4,243c11.2,18.3,5.4,42.2-12.9,53.4
			l9.9-6.1c18.3-11.2,24.1-35.1,12.9-53.4L538,63.8C526.8,45.5,502.9,39.8,484.6,50.9z"/>
		<path id="XMLID_147_" class="st4" d="M190.9,609.3l-148.4-243c-11.2-18.3-5.4-42.2,12.9-53.4L40.5,322
			c-18.3,11.2-24.1,35.1-12.9,53.4l148.4,243c11.2,18.3,35.1,24.1,53.4,12.9l14.9-9.1C226,633.4,202.1,627.6,190.9,609.3z"/>
		<path id="XMLID_1_" class="st5" d="M680.9,355.6L224,634.5c-14.1,8.6-32.6,4.2-41.2-10l-157.6-258c-8.6-14.1-4.2-32.6,10-41.2
			L492.1,46.4c14.1-8.6,32.6-4.2,41.2,10l157.6,258.1C699.5,328.5,695.1,347,680.9,355.6z"/>
		<path id="XMLID_234_" class="st6" d="M659.3,341.5L301.2,560.1c-8.5,5.2-19.6,2.5-24.7-6L130.7,315.4c-5.2-8.5-2.5-19.6,6-24.7
			L494.8,72.1c8.5-5.2,19.6-2.5,24.7,6l145.8,238.8C670.5,325.3,667.8,336.3,659.3,341.5z"/>
		<g id="XMLID_21_">
			<line id="XMLID_56_" class="st7" x1="183.2" y1="262.2" x2="347.7" y2="531.7"/>
			<line id="XMLID_58_" class="st7" x1="236.2" y1="229.9" x2="400.7" y2="499.4"/>
			<line id="XMLID_59_" class="st7" x1="289.2" y1="197.5" x2="453.8" y2="467"/>
			<line id="XMLID_60_" class="st7" x1="342.2" y1="165.1" x2="506.8" y2="434.6"/>
			<line id="XMLID_62_" class="st7" x1="395.3" y1="132.8" x2="559.8" y2="402.3"/>
			<line id="XMLID_63_" class="st7" x1="448.3" y1="100.4" x2="612.8" y2="369.9"/>
			<line id="XMLID_64_" class="st7" x1="155" y1="355.2" x2="543.9" y2="117.8"/>
			<line id="XMLID_66_" class="st7" x1="187.4" y1="408.2" x2="576.2" y2="170.9"/>
			<line id="XMLID_67_" class="st7" x1="219.8" y1="461.3" x2="608.6" y2="223.9"/>
			<line id="XMLID_68_" class="st7" x1="252.1" y1="514.3" x2="641" y2="276.9"/>
		</g>
		<path id="XMLID_4_" class="st5" d="M659.3,341.5L301.2,560.1c-8.5,5.2-19.6,2.5-24.7-6L130.7,315.4c-5.2-8.5-2.5-19.6,6-24.7
			L494.8,72.1c8.5-5.2,19.6-2.5,24.7,6l145.8,238.8C670.5,325.3,667.8,336.3,659.3,341.5z"/>
		<g id="XMLID_75_" class="st8">
			<path id="XMLID_78_" class="st2" d="M241.6,575.3l-25.1,15.3c-2.8,1.7-6.5,0.8-8.2-2l-9.9-16.3c-1.7-2.8-0.8-6.5,2-8.2l25.1-15.3
				c2.8-1.7,6.5-0.8,8.2,2l9.9,16.3C245.3,569.9,244.4,573.6,241.6,575.3z"/>
			<path id="XMLID_76_" class="st2" d="M214.6,531.1l-25.1,15.3c-2.8,1.7-6.5,0.8-8.2-2l-9.9-16.3c-1.7-2.8-0.8-6.5,2-8.2l25.1-15.3
				c2.8-1.7,6.5-0.8,8.2,2l9.9,16.3C218.4,525.7,217.5,529.4,214.6,531.1z"/>
		</g>
		<g id="XMLID_7_">
			<path id="XMLID_11_" class="st5" d="M241.6,575.3l-25.1,15.3c-2.8,1.7-6.5,0.8-8.2-2l-9.9-16.3c-1.7-2.8-0.8-6.5,2-8.2l25.1-15.3
				c2.8-1.7,6.5-0.8,8.2,2l9.9,16.3C245.3,569.9,244.4,573.6,241.6,575.3z"/>
			<path id="XMLID_13_" class="st5" d="M214.6,531.1l-25.1,15.3c-2.8,1.7-6.5,0.8-8.2-2l-9.9-16.3c-1.7-2.8-0.8-6.5,2-8.2l25.1-15.3
				c2.8-1.7,6.5-0.8,8.2,2l9.9,16.3C218.4,525.7,217.5,529.4,214.6,531.1z"/>
		</g>
		<g id="XMLID_14_" class="st8">
			<path id="XMLID_16_" class="st2" d="M143.6,414.8l-25.1,15.3c-2.8,1.7-6.5,0.8-8.2-2l-9.9-16.3c-1.7-2.8-0.8-6.5,2-8.2l25.1-15.3
				c2.8-1.7,6.5-0.8,8.2,2l9.9,16.3C147.3,409.3,146.4,413,143.6,414.8z"/>
			<path id="XMLID_15_" class="st2" d="M116.6,370.6l-25.1,15.3c-2.8,1.7-6.5,0.8-8.2-2l-9.9-16.3c-1.7-2.8-0.8-6.5,2-8.2l25.1-15.3
				c2.8-1.7,6.5-0.8,8.2,2l9.9,16.3C120.4,365.2,119.5,368.9,116.6,370.6z"/>
		</g>
		<g id="XMLID_193_">
			<path id="XMLID_227_" class="st5" d="M143.6,414.8l-25.1,15.3c-2.8,1.7-6.5,0.8-8.2-2l-9.9-16.3c-1.7-2.8-0.8-6.5,2-8.2
				l25.1-15.3c2.8-1.7,6.5-0.8,8.2,2l9.9,16.3C147.3,409.3,146.4,413,143.6,414.8z"/>
			<path id="XMLID_213_" class="st5" d="M116.6,370.6l-25.1,15.3c-2.8,1.7-6.5,0.8-8.2-2l-9.9-16.3c-1.7-2.8-0.8-6.5,2-8.2
				l25.1-15.3c2.8-1.7,6.5-0.8,8.2,2l9.9,16.3C120.4,365.2,119.5,368.9,116.6,370.6z"/>
		</g>
		
			<ellipse id="XMLID_79_" transform="matrix(0.9806 -0.1961 0.1961 0.9806 -88.5648 40.1579)" class="st9" cx="158.5" cy="467.3" rx="31.1" ry="31.1"/>
		
			<ellipse id="XMLID_8_" transform="matrix(0.9806 -0.1961 0.1961 0.9806 -88.5648 40.1579)" class="st10" cx="158.5" cy="467.3" rx="31.1" ry="31.1"/>
		
			<ellipse id="XMLID_141_" transform="matrix(0.9806 -0.1961 0.1961 0.9806 -88.5648 40.1579)" class="st11" cx="158.5" cy="467.3" rx="31.1" ry="31.1"/>
		<path id="XMLID_143_" class="st12" d="M145.2,475.4c-4.5-7.3-2.1-16.9,5.2-21.3"/>
		<g id="XMLID_25_">
			<g id="XMLID_253_">
				<g id="XMLID_270_">
					<line id="XMLID_272_" class="st13" x1="577.1" y1="311.4" x2="581.1" y2="318"/>
					<line id="XMLID_271_" class="st13" x1="582.4" y1="312.6" x2="575.8" y2="316.7"/>
				</g>
				<g id="XMLID_267_">
					<line id="XMLID_269_" class="st13" x1="524.1" y1="343.7" x2="528.1" y2="350.4"/>
					<line id="XMLID_268_" class="st13" x1="529.4" y1="345" x2="522.8" y2="349.1"/>
				</g>
				<g id="XMLID_264_">
					<line id="XMLID_266_" class="st13" x1="471" y1="376.1" x2="475.1" y2="382.7"/>
					<line id="XMLID_265_" class="st13" x1="476.4" y1="377.4" x2="469.7" y2="381.4"/>
				</g>
				<g id="XMLID_261_">
					<line id="XMLID_263_" class="st13" x1="418" y1="408.5" x2="422.1" y2="415.1"/>
					<line id="XMLID_262_" class="st13" x1="423.4" y1="409.8" x2="416.7" y2="413.8"/>
				</g>
				<g id="XMLID_258_">
					<line id="XMLID_260_" class="st13" x1="365" y1="440.8" x2="369" y2="447.5"/>
					<line id="XMLID_259_" class="st13" x1="370.3" y1="442.1" x2="363.7" y2="446.2"/>
				</g>
				<g id="XMLID_255_">
					<line id="XMLID_257_" class="st13" x1="312" y1="473.2" x2="316" y2="479.8"/>
					<line id="XMLID_256_" class="st13" x1="317.3" y1="474.5" x2="310.7" y2="478.5"/>
				</g>
			</g>
			<g id="XMLID_233_">
				<g id="XMLID_250_">
					<line id="XMLID_252_" class="st13" x1="544.7" y1="258.3" x2="548.8" y2="265"/>
					<line id="XMLID_251_" class="st13" x1="550" y1="259.6" x2="543.4" y2="263.7"/>
				</g>
				<g id="XMLID_247_">
					<line id="XMLID_249_" class="st13" x1="491.7" y1="290.7" x2="495.7" y2="297.3"/>
					<line id="XMLID_248_" class="st13" x1="497" y1="292" x2="490.4" y2="296"/>
				</g>
				<g id="XMLID_244_">
					<line id="XMLID_246_" class="st13" x1="438.7" y1="323.1" x2="442.7" y2="329.7"/>
					<line id="XMLID_245_" class="st13" x1="444" y1="324.4" x2="437.4" y2="328.4"/>
				</g>
				<g id="XMLID_241_">
					<line id="XMLID_243_" class="st13" x1="385.7" y1="355.4" x2="389.7" y2="362.1"/>
					<line id="XMLID_242_" class="st13" x1="391" y1="356.7" x2="384.4" y2="360.8"/>
				</g>
				<g id="XMLID_238_">
					<line id="XMLID_240_" class="st13" x1="332.6" y1="387.8" x2="336.7" y2="394.4"/>
					<line id="XMLID_239_" class="st13" x1="338" y1="389.1" x2="331.3" y2="393.1"/>
				</g>
				<g id="XMLID_235_">
					<line id="XMLID_237_" class="st13" x1="279.6" y1="420.2" x2="283.7" y2="426.8"/>
					<line id="XMLID_236_" class="st13" x1="284.9" y1="421.5" x2="278.3" y2="425.5"/>
				</g>
			</g>
			<g id="XMLID_212_">
				<g id="XMLID_230_">
					<line id="XMLID_232_" class="st13" x1="512.3" y1="205.3" x2="516.4" y2="211.9"/>
					<line id="XMLID_231_" class="st13" x1="517.7" y1="206.6" x2="511.1" y2="210.7"/>
				</g>
				<g id="XMLID_226_">
					<line id="XMLID_229_" class="st13" x1="459.3" y1="237.7" x2="463.4" y2="244.3"/>
					<line id="XMLID_228_" class="st13" x1="464.7" y1="239" x2="458" y2="243"/>
				</g>
				<g id="XMLID_223_">
					<line id="XMLID_225_" class="st13" x1="406.3" y1="270.1" x2="410.3" y2="276.7"/>
					<line id="XMLID_224_" class="st13" x1="411.6" y1="271.3" x2="405" y2="275.4"/>
				</g>
				<g id="XMLID_220_">
					<line id="XMLID_222_" class="st13" x1="353.3" y1="302.4" x2="357.3" y2="309.1"/>
					<line id="XMLID_221_" class="st13" x1="358.6" y1="303.7" x2="352" y2="307.8"/>
				</g>
				<g id="XMLID_217_">
					<line id="XMLID_219_" class="st13" x1="300.3" y1="334.8" x2="304.3" y2="341.4"/>
					<line id="XMLID_218_" class="st13" x1="305.6" y1="336.1" x2="299" y2="340.1"/>
				</g>
				<g id="XMLID_214_">
					<line id="XMLID_216_" class="st13" x1="247.2" y1="367.2" x2="251.3" y2="373.8"/>
					<line id="XMLID_215_" class="st13" x1="252.6" y1="368.5" x2="246" y2="372.5"/>
				</g>
			</g>
			<g id="XMLID_192_">
				<g id="XMLID_209_">
					<line id="XMLID_211_" class="st13" x1="480" y1="152.3" x2="484" y2="158.9"/>
					<line id="XMLID_210_" class="st13" x1="485.3" y1="153.6" x2="478.7" y2="157.6"/>
				</g>
				<g id="XMLID_206_">
					<line id="XMLID_208_" class="st13" x1="427" y1="184.7" x2="431" y2="191.3"/>
					<line id="XMLID_207_" class="st13" x1="432.3" y1="186" x2="425.7" y2="190"/>
				</g>
				<g id="XMLID_203_">
					<line id="XMLID_205_" class="st13" x1="373.9" y1="217" x2="378" y2="223.7"/>
					<line id="XMLID_204_" class="st13" x1="379.3" y1="218.3" x2="372.6" y2="222.4"/>
				</g>
				<g id="XMLID_200_">
					<line id="XMLID_202_" class="st13" x1="320.9" y1="249.4" x2="325" y2="256"/>
					<line id="XMLID_201_" class="st13" x1="326.3" y1="250.7" x2="319.6" y2="254.7"/>
				</g>
				<g id="XMLID_197_">
					<line id="XMLID_199_" class="st13" x1="267.9" y1="281.8" x2="271.9" y2="288.4"/>
					<line id="XMLID_198_" class="st13" x1="273.2" y1="283.1" x2="266.6" y2="287.1"/>
				</g>
				<g id="XMLID_194_">
					<line id="XMLID_196_" class="st13" x1="214.9" y1="314.1" x2="218.9" y2="320.8"/>
					<line id="XMLID_195_" class="st13" x1="220.2" y1="315.4" x2="213.6" y2="319.5"/>
				</g>
			</g>
		</g>
		<g id="XMLID_139_" class="st14">
			
				<rect id="XMLID_138_" x="368.6" y="219.1" transform="matrix(0.3877 -0.9218 0.9218 0.3877 -83.7087 569.3174)" class="st15" width="36.2" height="257.1"/>
			<path id="XMLID_137_" class="st16" d="M510.8,384.3l-11.1,26.5l11,3.7c1.9,0.6,3.9-0.3,4.7-2.1l7.5-17.9c0.8-1.8,0-3.9-1.8-4.8
				L510.8,384.3z"/>
			
				<rect id="XMLID_136_" x="451.1" y="360.9" transform="matrix(0.3877 -0.9218 0.9218 0.3877 -64.5848 669.5067)" class="st15" width="41.2" height="44.9"/>
			<path id="XMLID_135_" class="st16" d="M383.7,329l-0.6,1.3c-1.2,2.8-4.4,4.1-7.2,2.9l-67.5-28.4c-2.8-1.2-4.1-4.4-2.9-7.2
				l0.6-1.3c1.2-2.8,4.4-4.1,7.2-2.9l67.5,28.4C383.6,323,384.9,326.2,383.7,329z"/>
			<polygon id="XMLID_116_" class="st16" points="233.6,277.8 229.7,287.1 261.2,314.5 275.2,281.1 			"/>
			<polygon id="XMLID_115_" class="st16" points="230.4,285.5 222.5,278.6 232.9,279.5 			"/>
			<line id="XMLID_114_" class="st17" x1="215" y1="275.4" x2="222.3" y2="278.5"/>
		</g>
		<g id="XMLID_2_">
			
				<rect id="XMLID_254_" x="362.1" y="204.7" transform="matrix(0.3877 -0.9218 0.9218 0.3877 -74.3573 554.5402)" class="st2" width="36.2" height="257.1"/>
			
				<rect id="XMLID_9_" x="369.7" y="216.2" transform="matrix(0.3877 -0.9218 0.9218 0.3877 -87.9494 557.1347)" class="st4" width="11.3" height="257.1"/>
			
				<rect id="XMLID_110_" x="379.4" y="193.2" transform="matrix(0.3877 -0.9218 0.9218 0.3877 -60.7648 551.9457)" class="st18" width="11.3" height="257.1"/>
			
				<rect id="XMLID_12_" x="362.1" y="204.7" transform="matrix(0.3877 -0.9218 0.9218 0.3877 -74.3573 554.5402)" class="st19" width="36.2" height="257.1"/>
			<path id="XMLID_274_" class="st20" d="M504.3,369.9l-11.1,26.5l11,3.7c1.9,0.6,3.9-0.3,4.7-2.1l7.5-17.9c0.8-1.8,0-3.9-1.8-4.8
				L504.3,369.9z"/>
			<path id="XMLID_17_" class="st5" d="M504.3,369.9l-11.1,26.5l11,3.7c1.9,0.6,3.9-0.3,4.7-2.1l7.5-17.9c0.8-1.8,0-3.9-1.8-4.8
				L504.3,369.9z"/>
			
				<rect id="XMLID_273_" x="444.5" y="346.5" transform="matrix(0.3877 -0.9218 0.9218 0.3877 -55.3189 654.6418)" class="st21" width="41.2" height="44.9"/>
			
				<rect id="XMLID_10_" x="453.4" y="359.9" transform="matrix(0.3877 -0.9218 0.9218 0.3877 -71.1493 657.642)" class="st6" width="12.1" height="44.9"/>
			
				<rect id="XMLID_145_" x="464.6" y="332.9" transform="matrix(0.3877 -0.9218 0.9218 0.3877 -39.217 651.5856)" class="st22" width="12.5" height="44.9"/>
			
				<rect id="XMLID_19_" x="444.5" y="346.5" transform="matrix(0.3877 -0.9218 0.9218 0.3877 -55.3189 654.6418)" class="st19" width="41.2" height="44.9"/>
			<path id="XMLID_3_" class="st23" d="M377.2,314.6l-0.6,1.3c-1.2,2.8-4.4,4.1-7.2,2.9l-67.5-28.4c-2.8-1.2-4.1-4.4-2.9-7.2
				l0.6-1.3c1.2-2.8,4.4-4.1,7.2-2.9l67.5,28.4C377,308.6,378.4,311.8,377.2,314.6z"/>
			<path id="XMLID_20_" class="st5" d="M377.2,314.6l-0.6,1.3c-1.2,2.8-4.4,4.1-7.2,2.9l-67.5-28.4c-2.8-1.2-4.1-4.4-2.9-7.2
				l0.6-1.3c1.2-2.8,4.4-4.1,7.2-2.9l67.5,28.4C377,308.6,378.4,311.8,377.2,314.6z"/>
			<polygon id="XMLID_275_" class="st21" points="227.1,263.4 223.2,272.7 254.6,300.1 268.7,266.7 			"/>
			<polygon id="XMLID_134_" class="st22" points="223.2,272.7 254.6,300.1 259,289.7 225.1,268 			"/>
			<polygon id="XMLID_144_" class="st22" points="227.1,263.4 268.7,266.7 264.3,277.1 225.1,268 			"/>
			<polygon id="XMLID_23_" class="st5" points="227.1,263.4 223.2,272.7 254.6,300.1 268.7,266.7 			"/>
			<polygon id="XMLID_18_" class="st5" points="223.9,271 216,264.2 226.4,265 			"/>
			<line id="XMLID_22_" class="st5" x1="208.4" y1="261" x2="215.7" y2="264.1"/>
		</g>
	</g>
</g>
<g>
	<path id="XMLID_53_" class="st1" d="M882.3,702.1h-18.7c-23.4,0-42.4-19-42.4-42.4L819.7,559c0.8-19.9,19.1-35.5,40.9-35.5h24.6
		c21.8,0,40.1,15.6,40.9,35.5l-1.5,100.7C924.7,683.1,905.7,702.1,882.3,702.1z"/>
	<path id="XMLID_51_" class="st24" d="M872.3,687.6h-18.7c-23.4,0-42.4-19-42.4-42.4l-1.5-100.7c0.8-19.9,19.1-35.5,40.9-35.5h24.6
		c21.8,0,40.1,15.6,40.9,35.5l-1.5,100.7C914.7,668.6,895.7,687.6,872.3,687.6z"/>
	<path id="XMLID_65_" class="st9" d="M879,509.2l-1.4,92.3c0,23.4-19,42.4-42.4,42.4h-18.7c-1.8,0-3.6-0.1-5.4-0.4v1.7
		c0,23.4,19,42.4,42.4,42.4h18.7c23.4,0,42.4-19,42.4-42.4l1.6-100.7C915.4,525.8,899.1,510.9,879,509.2z"/>
	<path id="XMLID_32_" class="st5" d="M872.3,687.6h-18.7c-23.4,0-42.4-19-42.4-42.4l-1.5-100.7c0.8-19.9,19.1-35.5,40.9-35.5h24.6
		c21.8,0,40.1,15.6,40.9,35.5l-1.5,100.7C914.7,668.6,895.7,687.6,872.3,687.6z"/>
	<line id="XMLID_52_" class="st5" x1="862.9" y1="509" x2="862.9" y2="567.2"/>
</g>
</svg>
