<?xml version="1.0" encoding="UTF-8" standalone="no"?><!DOCTYPE svg PUBLIC "-//W3C//DTD SVG 1.1//EN" "http://www.w3.org/Graphics/SVG/1.1/DTD/svg11.dtd"><svg width="100%" height="100%" viewBox="0 0 501 630" version="1.1" xmlns="http://www.w3.org/2000/svg" xmlns:xlink="http://www.w3.org/1999/xlink" xml:space="preserve" xmlns:serif="http://www.serif.com/" style="fill-rule:evenodd;clip-rule:evenodd;stroke-linecap:round;stroke-linejoin:round;stroke-miterlimit:10;"><g><path d="M26.64,628.08c0,-0.397 -0.309,-0.72 -0.69,-0.72c-0.381,0 -0.69,0.323 -0.69,0.72c0,0.397 0.309,0.72 0.69,0.72c0.381,0 0.69,-0.323 0.69,-0.72Z" style="stroke:#000;stroke-width:0.72px;"/><path d="M76.14,628.08c0,-0.397 -0.323,-0.72 -0.72,-0.72c-0.397,0 -0.72,0.323 -0.72,0.72c0,0.397 0.323,0.72 0.72,0.72c0.397,0 0.72,-0.323 0.72,-0.72Z" style="stroke:#000;stroke-width:0.72px;"/><path d="M126.84,628.08c0,-0.397 -0.309,-0.72 -0.69,-0.72c-0.381,0 -0.69,0.323 -0.69,0.72c0,0.397 0.309,0.72 0.69,0.72c0.381,0 0.69,-0.323 0.69,-0.72Z" style="stroke:#000;stroke-width:0.72px;"/><path d="M176.34,628.08c0,-0.397 -0.323,-0.72 -0.72,-0.72c-0.397,0 -0.72,0.323 -0.72,0.72c0,0.397 0.323,0.72 0.72,0.72c0.397,0 0.72,-0.323 0.72,-0.72Z" style="stroke:#000;stroke-width:0.72px;"/><path d="M226.62,628.08c0,-0.397 -0.309,-0.72 -0.69,-0.72c-0.381,0 -0.69,0.323 -0.69,0.72c0,0.397 0.309,0.72 0.69,0.72c0.381,0 0.69,-0.323 0.69,-0.72Z" style="stroke:#000;stroke-width:0.72px;"/><path d="M276.06,628.08c0,-0.397 -0.309,-0.72 -0.69,-0.72c-0.381,0 -0.69,0.323 -0.69,0.72c0,0.397 0.309,0.72 0.69,0.72c0.381,0 0.69,-0.323 0.69,-0.72Z" style="stroke:#000;stroke-width:0.72px;"/><path d="M325.92,628.08c0,-0.397 -0.309,-0.72 -0.69,-0.72c-0.381,0 -0.69,0.323 -0.69,0.72c0,0.397 0.309,0.72 0.69,0.72c0.381,0 0.69,-0.323 0.69,-0.72Z" style="stroke:#000;stroke-width:0.72px;"/><path d="M375.36,628.08c0,-0.397 -0.309,-0.72 -0.69,-0.72c-0.381,0 -0.69,0.323 -0.69,0.72c0,0.397 0.309,0.72 0.69,0.72c0.381,0 0.69,-0.323 0.69,-0.72Z" style="stroke:#000;stroke-width:0.72px;"/><path d="M425.64,628.08c0,-0.397 -0.309,-0.72 -0.69,-0.72c-0.381,0 -0.69,0.323 -0.69,0.72c0,0.397 0.309,0.72 0.69,0.72c0.381,0 0.69,-0.323 0.69,-0.72Z" style="stroke:#000;stroke-width:0.72px;"/><path d="M475.14,628.08c0,-0.397 -0.323,-0.72 -0.72,-0.72c-0.397,0 -0.72,0.323 -0.72,0.72c0,0.397 0.323,0.72 0.72,0.72c0.397,0 0.72,-0.323 0.72,-0.72Z" style="stroke:#000;stroke-width:0.72px;"/><path d="M1.74,613.83c0,-0.381 -0.309,-0.69 -0.69,-0.69c-0.381,0 -0.69,0.309 -0.69,0.69c0,0.381 0.309,0.69 0.69,0.69c0.381,0 0.69,-0.309 0.69,-0.69Z" style="stroke:#000;stroke-width:0.72px;"/><path d="M51.24,613.83c0,-0.381 -0.323,-0.69 -0.72,-0.69c-0.397,0 -0.72,0.309 -0.72,0.69c0,0.381 0.323,0.69 0.72,0.69c0.397,0 0.72,-0.309 0.72,-0.69Z" style="stroke:#000;stroke-width:0.72px;"/><path d="M101.94,613.83c0,-0.381 -0.309,-0.69 -0.69,-0.69c-0.381,0 -0.69,0.309 -0.69,0.69c0,0.381 0.309,0.69 0.69,0.69c0.381,0 0.69,-0.309 0.69,-0.69Z" style="stroke:#000;stroke-width:0.72px;"/><path d="M151.44,613.83c0,-0.381 -0.323,-0.69 -0.72,-0.69c-0.397,0 -0.72,0.309 -0.72,0.69c0,0.381 0.323,0.69 0.72,0.69c0.397,0 0.72,-0.309 0.72,-0.69Z" style="stroke:#000;stroke-width:0.72px;"/><path d="M201.72,613.83c0,-0.381 -0.309,-0.69 -0.69,-0.69c-0.381,0 -0.69,0.309 -0.69,0.69c0,0.381 0.309,0.69 0.69,0.69c0.381,0 0.69,-0.309 0.69,-0.69Z" style="stroke:#000;stroke-width:0.72px;"/><path d="M251.16,613.83c0,-0.381 -0.309,-0.69 -0.69,-0.69c-0.381,0 -0.69,0.309 -0.69,0.69c0,0.381 0.309,0.69 0.69,0.69c0.381,0 0.69,-0.309 0.69,-0.69Z" style="stroke:#000;stroke-width:0.72px;"/><path d="M301.02,613.83c0,-0.381 -0.309,-0.69 -0.69,-0.69c-0.381,0 -0.69,0.309 -0.69,0.69c0,0.381 0.309,0.69 0.69,0.69c0.381,0 0.69,-0.309 0.69,-0.69Z" style="stroke:#000;stroke-width:0.72px;"/><path d="M350.46,613.83c0,-0.381 -0.309,-0.69 -0.69,-0.69c-0.381,0 -0.69,0.309 -0.69,0.69c0,0.381 0.309,0.69 0.69,0.69c0.381,0 0.69,-0.309 0.69,-0.69Z" style="stroke:#000;stroke-width:0.72px;"/><path d="M400.74,613.83c0,-0.381 -0.309,-0.69 -0.69,-0.69c-0.381,0 -0.69,0.309 -0.69,0.69c0,0.381 0.309,0.69 0.69,0.69c0.381,0 0.69,-0.309 0.69,-0.69Z" style="stroke:#000;stroke-width:0.72px;"/><path d="M450.24,613.83c0,-0.381 -0.323,-0.69 -0.72,-0.69c-0.397,0 -0.72,0.309 -0.72,0.69c0,0.381 0.323,0.69 0.72,0.69c0.397,0 0.72,-0.309 0.72,-0.69Z" style="stroke:#000;stroke-width:0.72px;"/><path d="M500.52,613.83c0,-0.381 -0.309,-0.69 -0.69,-0.69c-0.381,0 -0.69,0.309 -0.69,0.69c0,0.381 0.309,0.69 0.69,0.69c0.381,0 0.69,-0.309 0.69,-0.69Z" style="stroke:#000;stroke-width:0.72px;"/><path d="M26.64,599.58c0,-0.397 -0.309,-0.72 -0.69,-0.72c-0.381,0 -0.69,0.323 -0.69,0.72c0,0.397 0.309,0.72 0.69,0.72c0.381,0 0.69,-0.323 0.69,-0.72Z" style="stroke:#000;stroke-width:0.72px;"/><path d="M76.14,599.58c0,-0.397 -0.323,-0.72 -0.72,-0.72c-0.397,0 -0.72,0.323 -0.72,0.72c0,0.397 0.323,0.72 0.72,0.72c0.397,0 0.72,-0.323 0.72,-0.72Z" style="stroke:#000;stroke-width:0.72px;"/><path d="M126.84,599.58c0,-0.397 -0.309,-0.72 -0.69,-0.72c-0.381,0 -0.69,0.323 -0.69,0.72c0,0.397 0.309,0.72 0.69,0.72c0.381,0 0.69,-0.323 0.69,-0.72Z" style="stroke:#000;stroke-width:0.72px;"/><path d="M176.34,599.58c0,-0.397 -0.323,-0.72 -0.72,-0.72c-0.397,0 -0.72,0.323 -0.72,0.72c0,0.397 0.323,0.72 0.72,0.72c0.397,0 0.72,-0.323 0.72,-0.72Z" style="stroke:#000;stroke-width:0.72px;"/><path d="M226.62,599.58c0,-0.397 -0.309,-0.72 -0.69,-0.72c-0.381,0 -0.69,0.323 -0.69,0.72c0,0.397 0.309,0.72 0.69,0.72c0.381,0 0.69,-0.323 0.69,-0.72Z" style="stroke:#000;stroke-width:0.72px;"/><path d="M276.06,599.58c0,-0.397 -0.309,-0.72 -0.69,-0.72c-0.381,0 -0.69,0.323 -0.69,0.72c0,0.397 0.309,0.72 0.69,0.72c0.381,0 0.69,-0.323 0.69,-0.72Z" style="stroke:#000;stroke-width:0.72px;"/><path d="M325.92,599.58c0,-0.397 -0.309,-0.72 -0.69,-0.72c-0.381,0 -0.69,0.323 -0.69,0.72c0,0.397 0.309,0.72 0.69,0.72c0.381,0 0.69,-0.323 0.69,-0.72Z" style="stroke:#000;stroke-width:0.72px;"/><path d="M375.36,599.58c0,-0.397 -0.309,-0.72 -0.69,-0.72c-0.381,0 -0.69,0.323 -0.69,0.72c0,0.397 0.309,0.72 0.69,0.72c0.381,0 0.69,-0.323 0.69,-0.72Z" style="stroke:#000;stroke-width:0.72px;"/><path d="M425.64,599.58c0,-0.397 -0.309,-0.72 -0.69,-0.72c-0.381,0 -0.69,0.323 -0.69,0.72c0,0.397 0.309,0.72 0.69,0.72c0.381,0 0.69,-0.323 0.69,-0.72Z" style="stroke:#000;stroke-width:0.72px;"/><path d="M475.14,599.58c0,-0.397 -0.323,-0.72 -0.72,-0.72c-0.397,0 -0.72,0.323 -0.72,0.72c0,0.397 0.323,0.72 0.72,0.72c0.397,0 0.72,-0.323 0.72,-0.72Z" style="stroke:#000;stroke-width:0.72px;"/><path d="M1.74,585.33c0,-0.381 -0.309,-0.69 -0.69,-0.69c-0.381,0 -0.69,0.309 -0.69,0.69c0,0.381 0.309,0.69 0.69,0.69c0.381,0 0.69,-0.309 0.69,-0.69Z" style="stroke:#000;stroke-width:0.72px;"/><path d="M51.24,585.33c0,-0.381 -0.323,-0.69 -0.72,-0.69c-0.397,0 -0.72,0.309 -0.72,0.69c0,0.381 0.323,0.69 0.72,0.69c0.397,0 0.72,-0.309 0.72,-0.69Z" style="stroke:#000;stroke-width:0.72px;"/><path d="M101.94,585.33c0,-0.381 -0.309,-0.69 -0.69,-0.69c-0.381,0 -0.69,0.309 -0.69,0.69c0,0.381 0.309,0.69 0.69,0.69c0.381,0 0.69,-0.309 0.69,-0.69Z" style="stroke:#000;stroke-width:0.72px;"/><path d="M151.44,585.33c0,-0.381 -0.323,-0.69 -0.72,-0.69c-0.397,0 -0.72,0.309 -0.72,0.69c0,0.381 0.323,0.69 0.72,0.69c0.397,0 0.72,-0.309 0.72,-0.69Z" style="stroke:#000;stroke-width:0.72px;"/><path d="M201.72,585.33c0,-0.381 -0.309,-0.69 -0.69,-0.69c-0.381,0 -0.69,0.309 -0.69,0.69c0,0.381 0.309,0.69 0.69,0.69c0.381,0 0.69,-0.309 0.69,-0.69Z" style="stroke:#000;stroke-width:0.72px;"/><path d="M251.16,585.33c0,-0.381 -0.309,-0.69 -0.69,-0.69c-0.381,0 -0.69,0.309 -0.69,0.69c0,0.381 0.309,0.69 0.69,0.69c0.381,0 0.69,-0.309 0.69,-0.69Z" style="stroke:#000;stroke-width:0.72px;"/><path d="M301.02,585.33c0,-0.381 -0.309,-0.69 -0.69,-0.69c-0.381,0 -0.69,0.309 -0.69,0.69c0,0.381 0.309,0.69 0.69,0.69c0.381,0 0.69,-0.309 0.69,-0.69Z" style="stroke:#000;stroke-width:0.72px;"/><path d="M350.46,585.33c0,-0.381 -0.309,-0.69 -0.69,-0.69c-0.381,0 -0.69,0.309 -0.69,0.69c0,0.381 0.309,0.69 0.69,0.69c0.381,0 0.69,-0.309 0.69,-0.69Z" style="stroke:#000;stroke-width:0.72px;"/><path d="M400.74,585.33c0,-0.381 -0.309,-0.69 -0.69,-0.69c-0.381,0 -0.69,0.309 -0.69,0.69c0,0.381 0.309,0.69 0.69,0.69c0.381,0 0.69,-0.309 0.69,-0.69Z" style="stroke:#000;stroke-width:0.72px;"/><path d="M450.24,585.33c0,-0.381 -0.323,-0.69 -0.72,-0.69c-0.397,0 -0.72,0.309 -0.72,0.69c0,0.381 0.323,0.69 0.72,0.69c0.397,0 0.72,-0.309 0.72,-0.69Z" style="stroke:#000;stroke-width:0.72px;"/><path d="M500.52,585.33c0,-0.381 -0.309,-0.69 -0.69,-0.69c-0.381,0 -0.69,0.309 -0.69,0.69c0,0.381 0.309,0.69 0.69,0.69c0.381,0 0.69,-0.309 0.69,-0.69Z" style="stroke:#000;stroke-width:0.72px;"/><path d="M26.64,571.08c0,-0.397 -0.309,-0.72 -0.69,-0.72c-0.381,0 -0.69,0.323 -0.69,0.72c0,0.397 0.309,0.72 0.69,0.72c0.381,0 0.69,-0.323 0.69,-0.72Z" style="stroke:#000;stroke-width:0.72px;"/><path d="M76.14,571.08c0,-0.397 -0.323,-0.72 -0.72,-0.72c-0.397,0 -0.72,0.323 -0.72,0.72c0,0.397 0.323,0.72 0.72,0.72c0.397,0 0.72,-0.323 0.72,-0.72Z" style="stroke:#000;stroke-width:0.72px;"/><path d="M126.84,571.08c0,-0.397 -0.309,-0.72 -0.69,-0.72c-0.381,0 -0.69,0.323 -0.69,0.72c0,0.397 0.309,0.72 0.69,0.72c0.381,0 0.69,-0.323 0.69,-0.72Z" style="stroke:#000;stroke-width:0.72px;"/><path d="M176.34,571.08c0,-0.397 -0.323,-0.72 -0.72,-0.72c-0.397,0 -0.72,0.323 -0.72,0.72c0,0.397 0.323,0.72 0.72,0.72c0.397,0 0.72,-0.323 0.72,-0.72Z" style="stroke:#000;stroke-width:0.72px;"/><path d="M226.62,571.08c0,-0.397 -0.309,-0.72 -0.69,-0.72c-0.381,0 -0.69,0.323 -0.69,0.72c0,0.397 0.309,0.72 0.69,0.72c0.381,0 0.69,-0.323 0.69,-0.72Z" style="stroke:#000;stroke-width:0.72px;"/><path d="M276.06,571.08c0,-0.397 -0.309,-0.72 -0.69,-0.72c-0.381,0 -0.69,0.323 -0.69,0.72c0,0.397 0.309,0.72 0.69,0.72c0.381,0 0.69,-0.323 0.69,-0.72Z" style="stroke:#000;stroke-width:0.72px;"/><path d="M325.92,571.08c0,-0.397 -0.309,-0.72 -0.69,-0.72c-0.381,0 -0.69,0.323 -0.69,0.72c0,0.397 0.309,0.72 0.69,0.72c0.381,0 0.69,-0.323 0.69,-0.72Z" style="stroke:#000;stroke-width:0.72px;"/><path d="M375.36,571.08c0,-0.397 -0.309,-0.72 -0.69,-0.72c-0.381,0 -0.69,0.323 -0.69,0.72c0,0.397 0.309,0.72 0.69,0.72c0.381,0 0.69,-0.323 0.69,-0.72Z" style="stroke:#000;stroke-width:0.72px;"/><path d="M425.64,571.08c0,-0.397 -0.309,-0.72 -0.69,-0.72c-0.381,0 -0.69,0.323 -0.69,0.72c0,0.397 0.309,0.72 0.69,0.72c0.381,0 0.69,-0.323 0.69,-0.72Z" style="stroke:#000;stroke-width:0.72px;"/><path d="M475.14,571.08c0,-0.397 -0.323,-0.72 -0.72,-0.72c-0.397,0 -0.72,0.323 -0.72,0.72c0,0.397 0.323,0.72 0.72,0.72c0.397,0 0.72,-0.323 0.72,-0.72Z" style="stroke:#000;stroke-width:0.72px;"/><path d="M1.74,556.83c0,-0.381 -0.309,-0.69 -0.69,-0.69c-0.381,0 -0.69,0.309 -0.69,0.69c0,0.381 0.309,0.69 0.69,0.69c0.381,0 0.69,-0.309 0.69,-0.69Z" style="stroke:#000;stroke-width:0.72px;"/><path d="M51.24,556.83c0,-0.381 -0.323,-0.69 -0.72,-0.69c-0.397,0 -0.72,0.309 -0.72,0.69c0,0.381 0.323,0.69 0.72,0.69c0.397,0 0.72,-0.309 0.72,-0.69Z" style="stroke:#000;stroke-width:0.72px;"/><path d="M101.94,556.83c0,-0.381 -0.309,-0.69 -0.69,-0.69c-0.381,0 -0.69,0.309 -0.69,0.69c0,0.381 0.309,0.69 0.69,0.69c0.381,0 0.69,-0.309 0.69,-0.69Z" style="stroke:#000;stroke-width:0.72px;"/><path d="M151.44,556.83c0,-0.381 -0.323,-0.69 -0.72,-0.69c-0.397,0 -0.72,0.309 -0.72,0.69c0,0.381 0.323,0.69 0.72,0.69c0.397,0 0.72,-0.309 0.72,-0.69Z" style="stroke:#000;stroke-width:0.72px;"/><path d="M201.72,556.83c0,-0.381 -0.309,-0.69 -0.69,-0.69c-0.381,0 -0.69,0.309 -0.69,0.69c0,0.381 0.309,0.69 0.69,0.69c0.381,0 0.69,-0.309 0.69,-0.69Z" style="stroke:#000;stroke-width:0.72px;"/><path d="M251.16,556.83c0,-0.381 -0.309,-0.69 -0.69,-0.69c-0.381,0 -0.69,0.309 -0.69,0.69c0,0.381 0.309,0.69 0.69,0.69c0.381,0 0.69,-0.309 0.69,-0.69Z" style="stroke:#000;stroke-width:0.72px;"/><path d="M301.02,556.83c0,-0.381 -0.309,-0.69 -0.69,-0.69c-0.381,0 -0.69,0.309 -0.69,0.69c0,0.381 0.309,0.69 0.69,0.69c0.381,0 0.69,-0.309 0.69,-0.69Z" style="stroke:#000;stroke-width:0.72px;"/><path d="M350.46,556.83c0,-0.381 -0.309,-0.69 -0.69,-0.69c-0.381,0 -0.69,0.309 -0.69,0.69c0,0.381 0.309,0.69 0.69,0.69c0.381,0 0.69,-0.309 0.69,-0.69Z" style="stroke:#000;stroke-width:0.72px;"/><path d="M400.74,556.83c0,-0.381 -0.309,-0.69 -0.69,-0.69c-0.381,0 -0.69,0.309 -0.69,0.69c0,0.381 0.309,0.69 0.69,0.69c0.381,0 0.69,-0.309 0.69,-0.69Z" style="stroke:#000;stroke-width:0.72px;"/><path d="M450.24,556.83c0,-0.381 -0.323,-0.69 -0.72,-0.69c-0.397,0 -0.72,0.309 -0.72,0.69c0,0.381 0.323,0.69 0.72,0.69c0.397,0 0.72,-0.309 0.72,-0.69Z" style="stroke:#000;stroke-width:0.72px;"/><path d="M500.52,556.83c0,-0.381 -0.309,-0.69 -0.69,-0.69c-0.381,0 -0.69,0.309 -0.69,0.69c0,0.381 0.309,0.69 0.69,0.69c0.381,0 0.69,-0.309 0.69,-0.69Z" style="stroke:#000;stroke-width:0.72px;"/><path d="M26.64,542.58c0,-0.397 -0.309,-0.72 -0.69,-0.72c-0.381,0 -0.69,0.323 -0.69,0.72c0,0.397 0.309,0.72 0.69,0.72c0.381,0 0.69,-0.323 0.69,-0.72Z" style="stroke:#000;stroke-width:0.72px;"/><path d="M76.14,542.58c0,-0.397 -0.323,-0.72 -0.72,-0.72c-0.397,0 -0.72,0.323 -0.72,0.72c0,0.397 0.323,0.72 0.72,0.72c0.397,0 0.72,-0.323 0.72,-0.72Z" style="stroke:#000;stroke-width:0.72px;"/><path d="M126.84,542.58c0,-0.397 -0.309,-0.72 -0.69,-0.72c-0.381,0 -0.69,0.323 -0.69,0.72c0,0.397 0.309,0.72 0.69,0.72c0.381,0 0.69,-0.323 0.69,-0.72Z" style="stroke:#000;stroke-width:0.72px;"/><path d="M176.34,542.58c0,-0.397 -0.323,-0.72 -0.72,-0.72c-0.397,0 -0.72,0.323 -0.72,0.72c0,0.397 0.323,0.72 0.72,0.72c0.397,0 0.72,-0.323 0.72,-0.72Z" style="stroke:#000;stroke-width:0.72px;"/><path d="M226.62,542.58c0,-0.397 -0.309,-0.72 -0.69,-0.72c-0.381,0 -0.69,0.323 -0.69,0.72c0,0.397 0.309,0.72 0.69,0.72c0.381,0 0.69,-0.323 0.69,-0.72Z" style="stroke:#000;stroke-width:0.72px;"/><path d="M276.06,542.58c0,-0.397 -0.309,-0.72 -0.69,-0.72c-0.381,0 -0.69,0.323 -0.69,0.72c0,0.397 0.309,0.72 0.69,0.72c0.381,0 0.69,-0.323 0.69,-0.72Z" style="stroke:#000;stroke-width:0.72px;"/><path d="M325.92,542.58c0,-0.397 -0.309,-0.72 -0.69,-0.72c-0.381,0 -0.69,0.323 -0.69,0.72c0,0.397 0.309,0.72 0.69,0.72c0.381,0 0.69,-0.323 0.69,-0.72Z" style="stroke:#000;stroke-width:0.72px;"/><path d="M375.36,542.58c0,-0.397 -0.309,-0.72 -0.69,-0.72c-0.381,0 -0.69,0.323 -0.69,0.72c0,0.397 0.309,0.72 0.69,0.72c0.381,0 0.69,-0.323 0.69,-0.72Z" style="stroke:#000;stroke-width:0.72px;"/><path d="M425.64,542.58c0,-0.397 -0.309,-0.72 -0.69,-0.72c-0.381,0 -0.69,0.323 -0.69,0.72c0,0.397 0.309,0.72 0.69,0.72c0.381,0 0.69,-0.323 0.69,-0.72Z" style="stroke:#000;stroke-width:0.72px;"/><path d="M475.14,542.58c0,-0.397 -0.323,-0.72 -0.72,-0.72c-0.397,0 -0.72,0.323 -0.72,0.72c0,0.397 0.323,0.72 0.72,0.72c0.397,0 0.72,-0.323 0.72,-0.72Z" style="stroke:#000;stroke-width:0.72px;"/><path d="M1.74,528.33c0,-0.381 -0.309,-0.69 -0.69,-0.69c-0.381,0 -0.69,0.309 -0.69,0.69c0,0.381 0.309,0.69 0.69,0.69c0.381,0 0.69,-0.309 0.69,-0.69Z" style="stroke:#000;stroke-width:0.72px;"/><path d="M51.24,528.33c0,-0.381 -0.323,-0.69 -0.72,-0.69c-0.397,0 -0.72,0.309 -0.72,0.69c0,0.381 0.323,0.69 0.72,0.69c0.397,0 0.72,-0.309 0.72,-0.69Z" style="stroke:#000;stroke-width:0.72px;"/><path d="M101.94,528.33c0,-0.381 -0.309,-0.69 -0.69,-0.69c-0.381,0 -0.69,0.309 -0.69,0.69c0,0.381 0.309,0.69 0.69,0.69c0.381,0 0.69,-0.309 0.69,-0.69Z" style="stroke:#000;stroke-width:0.72px;"/><path d="M151.44,528.33c0,-0.381 -0.323,-0.69 -0.72,-0.69c-0.397,0 -0.72,0.309 -0.72,0.69c0,0.381 0.323,0.69 0.72,0.69c0.397,0 0.72,-0.309 0.72,-0.69Z" style="stroke:#000;stroke-width:0.72px;"/><path d="M201.72,528.33c0,-0.381 -0.309,-0.69 -0.69,-0.69c-0.381,0 -0.69,0.309 -0.69,0.69c0,0.381 0.309,0.69 0.69,0.69c0.381,0 0.69,-0.309 0.69,-0.69Z" style="stroke:#000;stroke-width:0.72px;"/><path d="M251.16,528.33c0,-0.381 -0.309,-0.69 -0.69,-0.69c-0.381,0 -0.69,0.309 -0.69,0.69c0,0.381 0.309,0.69 0.69,0.69c0.381,0 0.69,-0.309 0.69,-0.69Z" style="stroke:#000;stroke-width:0.72px;"/><path d="M301.02,528.33c0,-0.381 -0.309,-0.69 -0.69,-0.69c-0.381,0 -0.69,0.309 -0.69,0.69c0,0.381 0.309,0.69 0.69,0.69c0.381,0 0.69,-0.309 0.69,-0.69Z" style="stroke:#000;stroke-width:0.72px;"/><path d="M350.46,528.33c0,-0.381 -0.309,-0.69 -0.69,-0.69c-0.381,0 -0.69,0.309 -0.69,0.69c0,0.381 0.309,0.69 0.69,0.69c0.381,0 0.69,-0.309 0.69,-0.69Z" style="stroke:#000;stroke-width:0.72px;"/><path d="M400.74,528.33c0,-0.381 -0.309,-0.69 -0.69,-0.69c-0.381,0 -0.69,0.309 -0.69,0.69c0,0.381 0.309,0.69 0.69,0.69c0.381,0 0.69,-0.309 0.69,-0.69Z" style="stroke:#000;stroke-width:0.72px;"/><path d="M450.24,528.33c0,-0.381 -0.323,-0.69 -0.72,-0.69c-0.397,0 -0.72,0.309 -0.72,0.69c0,0.381 0.323,0.69 0.72,0.69c0.397,0 0.72,-0.309 0.72,-0.69Z" style="stroke:#000;stroke-width:0.72px;"/><path d="M500.52,528.33c0,-0.381 -0.309,-0.69 -0.69,-0.69c-0.381,0 -0.69,0.309 -0.69,0.69c0,0.381 0.309,0.69 0.69,0.69c0.381,0 0.69,-0.309 0.69,-0.69Z" style="stroke:#000;stroke-width:0.72px;"/><path d="M26.64,514.08c0,-0.397 -0.309,-0.72 -0.69,-0.72c-0.381,0 -0.69,0.323 -0.69,0.72c0,0.397 0.309,0.72 0.69,0.72c0.381,0 0.69,-0.323 0.69,-0.72Z" style="stroke:#000;stroke-width:0.72px;"/><path d="M76.14,514.08c0,-0.397 -0.323,-0.72 -0.72,-0.72c-0.397,0 -0.72,0.323 -0.72,0.72c0,0.397 0.323,0.72 0.72,0.72c0.397,0 0.72,-0.323 0.72,-0.72Z" style="stroke:#000;stroke-width:0.72px;"/><path d="M126.84,514.08c0,-0.397 -0.309,-0.72 -0.69,-0.72c-0.381,0 -0.69,0.323 -0.69,0.72c0,0.397 0.309,0.72 0.69,0.72c0.381,0 0.69,-0.323 0.69,-0.72Z" style="stroke:#000;stroke-width:0.72px;"/><path d="M176.34,514.08c0,-0.397 -0.323,-0.72 -0.72,-0.72c-0.397,0 -0.72,0.323 -0.72,0.72c0,0.397 0.323,0.72 0.72,0.72c0.397,0 0.72,-0.323 0.72,-0.72Z" style="stroke:#000;stroke-width:0.72px;"/><path d="M226.62,514.08c0,-0.397 -0.309,-0.72 -0.69,-0.72c-0.381,0 -0.69,0.323 -0.69,0.72c0,0.397 0.309,0.72 0.69,0.72c0.381,0 0.69,-0.323 0.69,-0.72Z" style="stroke:#000;stroke-width:0.72px;"/><path d="M276.06,514.08c0,-0.397 -0.309,-0.72 -0.69,-0.72c-0.381,0 -0.69,0.323 -0.69,0.72c0,0.397 0.309,0.72 0.69,0.72c0.381,0 0.69,-0.323 0.69,-0.72Z" style="stroke:#000;stroke-width:0.72px;"/><path d="M325.92,514.08c0,-0.397 -0.309,-0.72 -0.69,-0.72c-0.381,0 -0.69,0.323 -0.69,0.72c0,0.397 0.309,0.72 0.69,0.72c0.381,0 0.69,-0.323 0.69,-0.72Z" style="stroke:#000;stroke-width:0.72px;"/><path d="M375.36,514.08c0,-0.397 -0.309,-0.72 -0.69,-0.72c-0.381,0 -0.69,0.323 -0.69,0.72c0,0.397 0.309,0.72 0.69,0.72c0.381,0 0.69,-0.323 0.69,-0.72Z" style="stroke:#000;stroke-width:0.72px;"/><path d="M425.64,514.08c0,-0.397 -0.309,-0.72 -0.69,-0.72c-0.381,0 -0.69,0.323 -0.69,0.72c0,0.397 0.309,0.72 0.69,0.72c0.381,0 0.69,-0.323 0.69,-0.72Z" style="stroke:#000;stroke-width:0.72px;"/><path d="M475.14,514.08c0,-0.397 -0.323,-0.72 -0.72,-0.72c-0.397,0 -0.72,0.323 -0.72,0.72c0,0.397 0.323,0.72 0.72,0.72c0.397,0 0.72,-0.323 0.72,-0.72Z" style="stroke:#000;stroke-width:0.72px;"/><path d="M1.74,499.83c0,-0.381 -0.309,-0.69 -0.69,-0.69c-0.381,0 -0.69,0.309 -0.69,0.69c0,0.381 0.309,0.69 0.69,0.69c0.381,0 0.69,-0.309 0.69,-0.69Z" style="stroke:#000;stroke-width:0.72px;"/><path d="M51.24,499.83c0,-0.381 -0.323,-0.69 -0.72,-0.69c-0.397,0 -0.72,0.309 -0.72,0.69c0,0.381 0.323,0.69 0.72,0.69c0.397,0 0.72,-0.309 0.72,-0.69Z" style="stroke:#000;stroke-width:0.72px;"/><path d="M101.94,499.83c0,-0.381 -0.309,-0.69 -0.69,-0.69c-0.381,0 -0.69,0.309 -0.69,0.69c0,0.381 0.309,0.69 0.69,0.69c0.381,0 0.69,-0.309 0.69,-0.69Z" style="stroke:#000;stroke-width:0.72px;"/><path d="M151.44,499.83c0,-0.381 -0.323,-0.69 -0.72,-0.69c-0.397,0 -0.72,0.309 -0.72,0.69c0,0.381 0.323,0.69 0.72,0.69c0.397,0 0.72,-0.309 0.72,-0.69Z" style="stroke:#000;stroke-width:0.72px;"/><path d="M201.72,499.83c0,-0.381 -0.309,-0.69 -0.69,-0.69c-0.381,0 -0.69,0.309 -0.69,0.69c0,0.381 0.309,0.69 0.69,0.69c0.381,0 0.69,-0.309 0.69,-0.69Z" style="stroke:#000;stroke-width:0.72px;"/><path d="M251.16,499.83c0,-0.381 -0.309,-0.69 -0.69,-0.69c-0.381,0 -0.69,0.309 -0.69,0.69c0,0.381 0.309,0.69 0.69,0.69c0.381,0 0.69,-0.309 0.69,-0.69Z" style="stroke:#000;stroke-width:0.72px;"/><path d="M301.02,499.83c0,-0.381 -0.309,-0.69 -0.69,-0.69c-0.381,0 -0.69,0.309 -0.69,0.69c0,0.381 0.309,0.69 0.69,0.69c0.381,0 0.69,-0.309 0.69,-0.69Z" style="stroke:#000;stroke-width:0.72px;"/><path d="M350.46,499.83c0,-0.381 -0.309,-0.69 -0.69,-0.69c-0.381,0 -0.69,0.309 -0.69,0.69c0,0.381 0.309,0.69 0.69,0.69c0.381,0 0.69,-0.309 0.69,-0.69Z" style="stroke:#000;stroke-width:0.72px;"/><path d="M400.74,499.83c0,-0.381 -0.309,-0.69 -0.69,-0.69c-0.381,0 -0.69,0.309 -0.69,0.69c0,0.381 0.309,0.69 0.69,0.69c0.381,0 0.69,-0.309 0.69,-0.69Z" style="stroke:#000;stroke-width:0.72px;"/><path d="M450.24,499.83c0,-0.381 -0.323,-0.69 -0.72,-0.69c-0.397,0 -0.72,0.309 -0.72,0.69c0,0.381 0.323,0.69 0.72,0.69c0.397,0 0.72,-0.309 0.72,-0.69Z" style="stroke:#000;stroke-width:0.72px;"/><path d="M500.52,499.83c0,-0.381 -0.309,-0.69 -0.69,-0.69c-0.381,0 -0.69,0.309 -0.69,0.69c0,0.381 0.309,0.69 0.69,0.69c0.381,0 0.69,-0.309 0.69,-0.69Z" style="stroke:#000;stroke-width:0.72px;"/><path d="M26.64,485.58c0,-0.397 -0.309,-0.72 -0.69,-0.72c-0.381,0 -0.69,0.323 -0.69,0.72c0,0.397 0.309,0.72 0.69,0.72c0.381,0 0.69,-0.323 0.69,-0.72Z" style="stroke:#000;stroke-width:0.72px;"/><path d="M76.14,485.58c0,-0.397 -0.323,-0.72 -0.72,-0.72c-0.397,0 -0.72,0.323 -0.72,0.72c0,0.397 0.323,0.72 0.72,0.72c0.397,0 0.72,-0.323 0.72,-0.72Z" style="stroke:#000;stroke-width:0.72px;"/><path d="M126.84,485.58c0,-0.397 -0.309,-0.72 -0.69,-0.72c-0.381,0 -0.69,0.323 -0.69,0.72c0,0.397 0.309,0.72 0.69,0.72c0.381,0 0.69,-0.323 0.69,-0.72Z" style="stroke:#000;stroke-width:0.72px;"/><path d="M176.34,485.58c0,-0.397 -0.323,-0.72 -0.72,-0.72c-0.397,0 -0.72,0.323 -0.72,0.72c0,0.397 0.323,0.72 0.72,0.72c0.397,0 0.72,-0.323 0.72,-0.72Z" style="stroke:#000;stroke-width:0.72px;"/><path d="M226.62,485.58c0,-0.397 -0.309,-0.72 -0.69,-0.72c-0.381,0 -0.69,0.323 -0.69,0.72c0,0.397 0.309,0.72 0.69,0.72c0.381,0 0.69,-0.323 0.69,-0.72Z" style="stroke:#000;stroke-width:0.72px;"/><path d="M276.06,485.58c0,-0.397 -0.309,-0.72 -0.69,-0.72c-0.381,0 -0.69,0.323 -0.69,0.72c0,0.397 0.309,0.72 0.69,0.72c0.381,0 0.69,-0.323 0.69,-0.72Z" style="stroke:#000;stroke-width:0.72px;"/><path d="M325.92,485.58c0,-0.397 -0.309,-0.72 -0.69,-0.72c-0.381,0 -0.69,0.323 -0.69,0.72c0,0.397 0.309,0.72 0.69,0.72c0.381,0 0.69,-0.323 0.69,-0.72Z" style="stroke:#000;stroke-width:0.72px;"/><path d="M375.36,485.58c0,-0.397 -0.309,-0.72 -0.69,-0.72c-0.381,0 -0.69,0.323 -0.69,0.72c0,0.397 0.309,0.72 0.69,0.72c0.381,0 0.69,-0.323 0.69,-0.72Z" style="stroke:#000;stroke-width:0.72px;"/><path d="M425.64,485.58c0,-0.397 -0.309,-0.72 -0.69,-0.72c-0.381,0 -0.69,0.323 -0.69,0.72c0,0.397 0.309,0.72 0.69,0.72c0.381,0 0.69,-0.323 0.69,-0.72Z" style="stroke:#000;stroke-width:0.72px;"/><path d="M475.14,485.58c0,-0.397 -0.323,-0.72 -0.72,-0.72c-0.397,0 -0.72,0.323 -0.72,0.72c0,0.397 0.323,0.72 0.72,0.72c0.397,0 0.72,-0.323 0.72,-0.72Z" style="stroke:#000;stroke-width:0.72px;"/><path d="M1.74,471.33c0,-0.381 -0.309,-0.69 -0.69,-0.69c-0.381,0 -0.69,0.309 -0.69,0.69c0,0.381 0.309,0.69 0.69,0.69c0.381,0 0.69,-0.309 0.69,-0.69Z" style="stroke:#000;stroke-width:0.72px;"/><path d="M51.24,471.33c0,-0.381 -0.323,-0.69 -0.72,-0.69c-0.397,0 -0.72,0.309 -0.72,0.69c0,0.381 0.323,0.69 0.72,0.69c0.397,0 0.72,-0.309 0.72,-0.69Z" style="stroke:#000;stroke-width:0.72px;"/><path d="M101.94,471.33c0,-0.381 -0.309,-0.69 -0.69,-0.69c-0.381,0 -0.69,0.309 -0.69,0.69c0,0.381 0.309,0.69 0.69,0.69c0.381,0 0.69,-0.309 0.69,-0.69Z" style="stroke:#000;stroke-width:0.72px;"/><path d="M151.44,471.33c0,-0.381 -0.323,-0.69 -0.72,-0.69c-0.397,0 -0.72,0.309 -0.72,0.69c0,0.381 0.323,0.69 0.72,0.69c0.397,0 0.72,-0.309 0.72,-0.69Z" style="stroke:#000;stroke-width:0.72px;"/><path d="M201.72,471.33c0,-0.381 -0.309,-0.69 -0.69,-0.69c-0.381,0 -0.69,0.309 -0.69,0.69c0,0.381 0.309,0.69 0.69,0.69c0.381,0 0.69,-0.309 0.69,-0.69Z" style="stroke:#000;stroke-width:0.72px;"/><path d="M251.16,471.33c0,-0.381 -0.309,-0.69 -0.69,-0.69c-0.381,0 -0.69,0.309 -0.69,0.69c0,0.381 0.309,0.69 0.69,0.69c0.381,0 0.69,-0.309 0.69,-0.69Z" style="stroke:#000;stroke-width:0.72px;"/><path d="M301.02,471.33c0,-0.381 -0.309,-0.69 -0.69,-0.69c-0.381,0 -0.69,0.309 -0.69,0.69c0,0.381 0.309,0.69 0.69,0.69c0.381,0 0.69,-0.309 0.69,-0.69Z" style="stroke:#000;stroke-width:0.72px;"/><path d="M350.46,471.33c0,-0.381 -0.309,-0.69 -0.69,-0.69c-0.381,0 -0.69,0.309 -0.69,0.69c0,0.381 0.309,0.69 0.69,0.69c0.381,0 0.69,-0.309 0.69,-0.69Z" style="stroke:#000;stroke-width:0.72px;"/><path d="M400.74,471.33c0,-0.381 -0.309,-0.69 -0.69,-0.69c-0.381,0 -0.69,0.309 -0.69,0.69c0,0.381 0.309,0.69 0.69,0.69c0.381,0 0.69,-0.309 0.69,-0.69Z" style="stroke:#000;stroke-width:0.72px;"/><path d="M450.24,471.33c0,-0.381 -0.323,-0.69 -0.72,-0.69c-0.397,0 -0.72,0.309 -0.72,0.69c0,0.381 0.323,0.69 0.72,0.69c0.397,0 0.72,-0.309 0.72,-0.69Z" style="stroke:#000;stroke-width:0.72px;"/><path d="M500.52,471.33c0,-0.381 -0.309,-0.69 -0.69,-0.69c-0.381,0 -0.69,0.309 -0.69,0.69c0,0.381 0.309,0.69 0.69,0.69c0.381,0 0.69,-0.309 0.69,-0.69Z" style="stroke:#000;stroke-width:0.72px;"/><path d="M26.64,457.08c0,-0.397 -0.309,-0.72 -0.69,-0.72c-0.381,0 -0.69,0.323 -0.69,0.72c0,0.397 0.309,0.72 0.69,0.72c0.381,0 0.69,-0.323 0.69,-0.72Z" style="stroke:#000;stroke-width:0.72px;"/><path d="M76.14,457.08c0,-0.397 -0.323,-0.72 -0.72,-0.72c-0.397,0 -0.72,0.323 -0.72,0.72c0,0.397 0.323,0.72 0.72,0.72c0.397,0 0.72,-0.323 0.72,-0.72Z" style="stroke:#000;stroke-width:0.72px;"/><path d="M126.84,457.08c0,-0.397 -0.309,-0.72 -0.69,-0.72c-0.381,0 -0.69,0.323 -0.69,0.72c0,0.397 0.309,0.72 0.69,0.72c0.381,0 0.69,-0.323 0.69,-0.72Z" style="stroke:#000;stroke-width:0.72px;"/><path d="M176.34,457.08c0,-0.397 -0.323,-0.72 -0.72,-0.72c-0.397,0 -0.72,0.323 -0.72,0.72c0,0.397 0.323,0.72 0.72,0.72c0.397,0 0.72,-0.323 0.72,-0.72Z" style="stroke:#000;stroke-width:0.72px;"/><path d="M226.62,457.08c0,-0.397 -0.309,-0.72 -0.69,-0.72c-0.381,0 -0.69,0.323 -0.69,0.72c0,0.397 0.309,0.72 0.69,0.72c0.381,0 0.69,-0.323 0.69,-0.72Z" style="stroke:#000;stroke-width:0.72px;"/><path d="M276.06,457.08c0,-0.397 -0.309,-0.72 -0.69,-0.72c-0.381,0 -0.69,0.323 -0.69,0.72c0,0.397 0.309,0.72 0.69,0.72c0.381,0 0.69,-0.323 0.69,-0.72Z" style="stroke:#000;stroke-width:0.72px;"/><path d="M325.92,457.08c0,-0.397 -0.309,-0.72 -0.69,-0.72c-0.381,0 -0.69,0.323 -0.69,0.72c0,0.397 0.309,0.72 0.69,0.72c0.381,0 0.69,-0.323 0.69,-0.72Z" style="stroke:#000;stroke-width:0.72px;"/><path d="M375.36,457.08c0,-0.397 -0.309,-0.72 -0.69,-0.72c-0.381,0 -0.69,0.323 -0.69,0.72c0,0.397 0.309,0.72 0.69,0.72c0.381,0 0.69,-0.323 0.69,-0.72Z" style="stroke:#000;stroke-width:0.72px;"/><path d="M425.64,457.08c0,-0.397 -0.309,-0.72 -0.69,-0.72c-0.381,0 -0.69,0.323 -0.69,0.72c0,0.397 0.309,0.72 0.69,0.72c0.381,0 0.69,-0.323 0.69,-0.72Z" style="stroke:#000;stroke-width:0.72px;"/><path d="M475.14,457.08c0,-0.397 -0.323,-0.72 -0.72,-0.72c-0.397,0 -0.72,0.323 -0.72,0.72c0,0.397 0.323,0.72 0.72,0.72c0.397,0 0.72,-0.323 0.72,-0.72Z" style="stroke:#000;stroke-width:0.72px;"/><path d="M1.74,442.83c0,-0.381 -0.309,-0.69 -0.69,-0.69c-0.381,0 -0.69,0.309 -0.69,0.69c0,0.381 0.309,0.69 0.69,0.69c0.381,0 0.69,-0.309 0.69,-0.69Z" style="stroke:#000;stroke-width:0.72px;"/><path d="M51.24,442.83c0,-0.381 -0.323,-0.69 -0.72,-0.69c-0.397,0 -0.72,0.309 -0.72,0.69c0,0.381 0.323,0.69 0.72,0.69c0.397,0 0.72,-0.309 0.72,-0.69Z" style="stroke:#000;stroke-width:0.72px;"/><path d="M101.94,442.83c0,-0.381 -0.309,-0.69 -0.69,-0.69c-0.381,0 -0.69,0.309 -0.69,0.69c0,0.381 0.309,0.69 0.69,0.69c0.381,0 0.69,-0.309 0.69,-0.69Z" style="stroke:#000;stroke-width:0.72px;"/><path d="M151.44,442.83c0,-0.381 -0.323,-0.69 -0.72,-0.69c-0.397,0 -0.72,0.309 -0.72,0.69c0,0.381 0.323,0.69 0.72,0.69c0.397,0 0.72,-0.309 0.72,-0.69Z" style="stroke:#000;stroke-width:0.72px;"/><path d="M201.72,442.83c0,-0.381 -0.309,-0.69 -0.69,-0.69c-0.381,0 -0.69,0.309 -0.69,0.69c0,0.381 0.309,0.69 0.69,0.69c0.381,0 0.69,-0.309 0.69,-0.69Z" style="stroke:#000;stroke-width:0.72px;"/><path d="M251.16,442.83c0,-0.381 -0.309,-0.69 -0.69,-0.69c-0.381,0 -0.69,0.309 -0.69,0.69c0,0.381 0.309,0.69 0.69,0.69c0.381,0 0.69,-0.309 0.69,-0.69Z" style="stroke:#000;stroke-width:0.72px;"/><path d="M301.02,442.83c0,-0.381 -0.309,-0.69 -0.69,-0.69c-0.381,0 -0.69,0.309 -0.69,0.69c0,0.381 0.309,0.69 0.69,0.69c0.381,0 0.69,-0.309 0.69,-0.69Z" style="stroke:#000;stroke-width:0.72px;"/><path d="M350.46,442.83c0,-0.381 -0.309,-0.69 -0.69,-0.69c-0.381,0 -0.69,0.309 -0.69,0.69c0,0.381 0.309,0.69 0.69,0.69c0.381,0 0.69,-0.309 0.69,-0.69Z" style="stroke:#000;stroke-width:0.72px;"/><path d="M400.74,442.83c0,-0.381 -0.309,-0.69 -0.69,-0.69c-0.381,0 -0.69,0.309 -0.69,0.69c0,0.381 0.309,0.69 0.69,0.69c0.381,0 0.69,-0.309 0.69,-0.69Z" style="stroke:#000;stroke-width:0.72px;"/><path d="M450.24,442.83c0,-0.381 -0.323,-0.69 -0.72,-0.69c-0.397,0 -0.72,0.309 -0.72,0.69c0,0.381 0.323,0.69 0.72,0.69c0.397,0 0.72,-0.309 0.72,-0.69Z" style="stroke:#000;stroke-width:0.72px;"/><path d="M500.52,442.83c0,-0.381 -0.309,-0.69 -0.69,-0.69c-0.381,0 -0.69,0.309 -0.69,0.69c0,0.381 0.309,0.69 0.69,0.69c0.381,0 0.69,-0.309 0.69,-0.69Z" style="stroke:#000;stroke-width:0.72px;"/><path d="M26.64,428.58c0,-0.397 -0.309,-0.72 -0.69,-0.72c-0.381,0 -0.69,0.323 -0.69,0.72c0,0.397 0.309,0.72 0.69,0.72c0.381,0 0.69,-0.323 0.69,-0.72Z" style="stroke:#000;stroke-width:0.72px;"/><path d="M76.14,428.58c0,-0.397 -0.323,-0.72 -0.72,-0.72c-0.397,0 -0.72,0.323 -0.72,0.72c0,0.397 0.323,0.72 0.72,0.72c0.397,0 0.72,-0.323 0.72,-0.72Z" style="stroke:#000;stroke-width:0.72px;"/><path d="M126.84,428.58c0,-0.397 -0.309,-0.72 -0.69,-0.72c-0.381,0 -0.69,0.323 -0.69,0.72c0,0.397 0.309,0.72 0.69,0.72c0.381,0 0.69,-0.323 0.69,-0.72Z" style="stroke:#000;stroke-width:0.72px;"/><path d="M176.34,428.58c0,-0.397 -0.323,-0.72 -0.72,-0.72c-0.397,0 -0.72,0.323 -0.72,0.72c0,0.397 0.323,0.72 0.72,0.72c0.397,0 0.72,-0.323 0.72,-0.72Z" style="stroke:#000;stroke-width:0.72px;"/><path d="M226.62,428.58c0,-0.397 -0.309,-0.72 -0.69,-0.72c-0.381,0 -0.69,0.323 -0.69,0.72c0,0.397 0.309,0.72 0.69,0.72c0.381,0 0.69,-0.323 0.69,-0.72Z" style="stroke:#000;stroke-width:0.72px;"/><path d="M276.06,428.58c0,-0.397 -0.309,-0.72 -0.69,-0.72c-0.381,0 -0.69,0.323 -0.69,0.72c0,0.397 0.309,0.72 0.69,0.72c0.381,0 0.69,-0.323 0.69,-0.72Z" style="stroke:#000;stroke-width:0.72px;"/><path d="M325.92,428.58c0,-0.397 -0.309,-0.72 -0.69,-0.72c-0.381,0 -0.69,0.323 -0.69,0.72c0,0.397 0.309,0.72 0.69,0.72c0.381,0 0.69,-0.323 0.69,-0.72Z" style="stroke:#000;stroke-width:0.72px;"/><path d="M375.36,428.58c0,-0.397 -0.309,-0.72 -0.69,-0.72c-0.381,0 -0.69,0.323 -0.69,0.72c0,0.397 0.309,0.72 0.69,0.72c0.381,0 0.69,-0.323 0.69,-0.72Z" style="stroke:#000;stroke-width:0.72px;"/><path d="M425.64,428.58c0,-0.397 -0.309,-0.72 -0.69,-0.72c-0.381,0 -0.69,0.323 -0.69,0.72c0,0.397 0.309,0.72 0.69,0.72c0.381,0 0.69,-0.323 0.69,-0.72Z" style="stroke:#000;stroke-width:0.72px;"/><path d="M475.14,428.58c0,-0.397 -0.323,-0.72 -0.72,-0.72c-0.397,0 -0.72,0.323 -0.72,0.72c0,0.397 0.323,0.72 0.72,0.72c0.397,0 0.72,-0.323 0.72,-0.72Z" style="stroke:#000;stroke-width:0.72px;"/><path d="M1.74,414.33c0,-0.381 -0.309,-0.69 -0.69,-0.69c-0.381,0 -0.69,0.309 -0.69,0.69c0,0.381 0.309,0.69 0.69,0.69c0.381,0 0.69,-0.309 0.69,-0.69Z" style="stroke:#000;stroke-width:0.72px;"/><path d="M51.24,414.33c0,-0.381 -0.323,-0.69 -0.72,-0.69c-0.397,0 -0.72,0.309 -0.72,0.69c0,0.381 0.323,0.69 0.72,0.69c0.397,0 0.72,-0.309 0.72,-0.69Z" style="stroke:#000;stroke-width:0.72px;"/><path d="M101.94,414.33c0,-0.381 -0.309,-0.69 -0.69,-0.69c-0.381,0 -0.69,0.309 -0.69,0.69c0,0.381 0.309,0.69 0.69,0.69c0.381,0 0.69,-0.309 0.69,-0.69Z" style="stroke:#000;stroke-width:0.72px;"/><path d="M151.44,414.33c0,-0.381 -0.323,-0.69 -0.72,-0.69c-0.397,0 -0.72,0.309 -0.72,0.69c0,0.381 0.323,0.69 0.72,0.69c0.397,0 0.72,-0.309 0.72,-0.69Z" style="stroke:#000;stroke-width:0.72px;"/><path d="M201.72,414.33c0,-0.381 -0.309,-0.69 -0.69,-0.69c-0.381,0 -0.69,0.309 -0.69,0.69c0,0.381 0.309,0.69 0.69,0.69c0.381,0 0.69,-0.309 0.69,-0.69Z" style="stroke:#000;stroke-width:0.72px;"/><path d="M251.16,414.33c0,-0.381 -0.309,-0.69 -0.69,-0.69c-0.381,0 -0.69,0.309 -0.69,0.69c0,0.381 0.309,0.69 0.69,0.69c0.381,0 0.69,-0.309 0.69,-0.69Z" style="stroke:#000;stroke-width:0.72px;"/><path d="M301.02,414.33c0,-0.381 -0.309,-0.69 -0.69,-0.69c-0.381,0 -0.69,0.309 -0.69,0.69c0,0.381 0.309,0.69 0.69,0.69c0.381,0 0.69,-0.309 0.69,-0.69Z" style="stroke:#000;stroke-width:0.72px;"/><path d="M350.46,414.33c0,-0.381 -0.309,-0.69 -0.69,-0.69c-0.381,0 -0.69,0.309 -0.69,0.69c0,0.381 0.309,0.69 0.69,0.69c0.381,0 0.69,-0.309 0.69,-0.69Z" style="stroke:#000;stroke-width:0.72px;"/><path d="M400.74,414.33c0,-0.381 -0.309,-0.69 -0.69,-0.69c-0.381,0 -0.69,0.309 -0.69,0.69c0,0.381 0.309,0.69 0.69,0.69c0.381,0 0.69,-0.309 0.69,-0.69Z" style="stroke:#000;stroke-width:0.72px;"/><path d="M450.24,414.33c0,-0.381 -0.323,-0.69 -0.72,-0.69c-0.397,0 -0.72,0.309 -0.72,0.69c0,0.381 0.323,0.69 0.72,0.69c0.397,0 0.72,-0.309 0.72,-0.69Z" style="stroke:#000;stroke-width:0.72px;"/><path d="M500.52,414.33c0,-0.381 -0.309,-0.69 -0.69,-0.69c-0.381,0 -0.69,0.309 -0.69,0.69c0,0.381 0.309,0.69 0.69,0.69c0.381,0 0.69,-0.309 0.69,-0.69Z" style="stroke:#000;stroke-width:0.72px;"/><path d="M26.64,400.08c0,-0.397 -0.309,-0.72 -0.69,-0.72c-0.381,0 -0.69,0.323 -0.69,0.72c0,0.397 0.309,0.72 0.69,0.72c0.381,0 0.69,-0.323 0.69,-0.72Z" style="stroke:#000;stroke-width:0.72px;"/><path d="M76.14,400.08c0,-0.397 -0.323,-0.72 -0.72,-0.72c-0.397,0 -0.72,0.323 -0.72,0.72c0,0.397 0.323,0.72 0.72,0.72c0.397,0 0.72,-0.323 0.72,-0.72Z" style="stroke:#000;stroke-width:0.72px;"/><path d="M126.84,400.08c0,-0.397 -0.309,-0.72 -0.69,-0.72c-0.381,0 -0.69,0.323 -0.69,0.72c0,0.397 0.309,0.72 0.69,0.72c0.381,0 0.69,-0.323 0.69,-0.72Z" style="stroke:#000;stroke-width:0.72px;"/><path d="M176.34,400.08c0,-0.397 -0.323,-0.72 -0.72,-0.72c-0.397,0 -0.72,0.323 -0.72,0.72c0,0.397 0.323,0.72 0.72,0.72c0.397,0 0.72,-0.323 0.72,-0.72Z" style="stroke:#000;stroke-width:0.72px;"/><path d="M226.62,400.08c0,-0.397 -0.309,-0.72 -0.69,-0.72c-0.381,0 -0.69,0.323 -0.69,0.72c0,0.397 0.309,0.72 0.69,0.72c0.381,0 0.69,-0.323 0.69,-0.72Z" style="stroke:#000;stroke-width:0.72px;"/><path d="M276.06,400.08c0,-0.397 -0.309,-0.72 -0.69,-0.72c-0.381,0 -0.69,0.323 -0.69,0.72c0,0.397 0.309,0.72 0.69,0.72c0.381,0 0.69,-0.323 0.69,-0.72Z" style="stroke:#000;stroke-width:0.72px;"/><path d="M325.92,400.08c0,-0.397 -0.309,-0.72 -0.69,-0.72c-0.381,0 -0.69,0.323 -0.69,0.72c0,0.397 0.309,0.72 0.69,0.72c0.381,0 0.69,-0.323 0.69,-0.72Z" style="stroke:#000;stroke-width:0.72px;"/><path d="M375.36,400.08c0,-0.397 -0.309,-0.72 -0.69,-0.72c-0.381,0 -0.69,0.323 -0.69,0.72c0,0.397 0.309,0.72 0.69,0.72c0.381,0 0.69,-0.323 0.69,-0.72Z" style="stroke:#000;stroke-width:0.72px;"/><path d="M425.64,400.08c0,-0.397 -0.309,-0.72 -0.69,-0.72c-0.381,0 -0.69,0.323 -0.69,0.72c0,0.397 0.309,0.72 0.69,0.72c0.381,0 0.69,-0.323 0.69,-0.72Z" style="stroke:#000;stroke-width:0.72px;"/><path d="M475.14,400.08c0,-0.397 -0.323,-0.72 -0.72,-0.72c-0.397,0 -0.72,0.323 -0.72,0.72c0,0.397 0.323,0.72 0.72,0.72c0.397,0 0.72,-0.323 0.72,-0.72Z" style="stroke:#000;stroke-width:0.72px;"/><path d="M1.74,385.83c0,-0.381 -0.309,-0.69 -0.69,-0.69c-0.381,0 -0.69,0.309 -0.69,0.69c0,0.381 0.309,0.69 0.69,0.69c0.381,0 0.69,-0.309 0.69,-0.69Z" style="stroke:#000;stroke-width:0.72px;"/><path d="M51.24,385.83c0,-0.381 -0.323,-0.69 -0.72,-0.69c-0.397,0 -0.72,0.309 -0.72,0.69c0,0.381 0.323,0.69 0.72,0.69c0.397,0 0.72,-0.309 0.72,-0.69Z" style="stroke:#000;stroke-width:0.72px;"/><path d="M101.94,385.83c0,-0.381 -0.309,-0.69 -0.69,-0.69c-0.381,0 -0.69,0.309 -0.69,0.69c0,0.381 0.309,0.69 0.69,0.69c0.381,0 0.69,-0.309 0.69,-0.69Z" style="stroke:#000;stroke-width:0.72px;"/><path d="M151.44,385.83c0,-0.381 -0.323,-0.69 -0.72,-0.69c-0.397,0 -0.72,0.309 -0.72,0.69c0,0.381 0.323,0.69 0.72,0.69c0.397,0 0.72,-0.309 0.72,-0.69Z" style="stroke:#000;stroke-width:0.72px;"/><path d="M201.72,385.83c0,-0.381 -0.309,-0.69 -0.69,-0.69c-0.381,0 -0.69,0.309 -0.69,0.69c0,0.381 0.309,0.69 0.69,0.69c0.381,0 0.69,-0.309 0.69,-0.69Z" style="stroke:#000;stroke-width:0.72px;"/><path d="M251.16,385.83c0,-0.381 -0.309,-0.69 -0.69,-0.69c-0.381,0 -0.69,0.309 -0.69,0.69c0,0.381 0.309,0.69 0.69,0.69c0.381,0 0.69,-0.309 0.69,-0.69Z" style="stroke:#000;stroke-width:0.72px;"/><path d="M301.02,385.83c0,-0.381 -0.309,-0.69 -0.69,-0.69c-0.381,0 -0.69,0.309 -0.69,0.69c0,0.381 0.309,0.69 0.69,0.69c0.381,0 0.69,-0.309 0.69,-0.69Z" style="stroke:#000;stroke-width:0.72px;"/><path d="M350.46,385.83c0,-0.381 -0.309,-0.69 -0.69,-0.69c-0.381,0 -0.69,0.309 -0.69,0.69c0,0.381 0.309,0.69 0.69,0.69c0.381,0 0.69,-0.309 0.69,-0.69Z" style="stroke:#000;stroke-width:0.72px;"/><path d="M400.74,385.83c0,-0.381 -0.309,-0.69 -0.69,-0.69c-0.381,0 -0.69,0.309 -0.69,0.69c0,0.381 0.309,0.69 0.69,0.69c0.381,0 0.69,-0.309 0.69,-0.69Z" style="stroke:#000;stroke-width:0.72px;"/><path d="M450.24,385.83c0,-0.381 -0.323,-0.69 -0.72,-0.69c-0.397,0 -0.72,0.309 -0.72,0.69c0,0.381 0.323,0.69 0.72,0.69c0.397,0 0.72,-0.309 0.72,-0.69Z" style="stroke:#000;stroke-width:0.72px;"/><path d="M500.52,385.83c0,-0.381 -0.309,-0.69 -0.69,-0.69c-0.381,0 -0.69,0.309 -0.69,0.69c0,0.381 0.309,0.69 0.69,0.69c0.381,0 0.69,-0.309 0.69,-0.69Z" style="stroke:#000;stroke-width:0.72px;"/><path d="M26.64,371.58c0,-0.397 -0.309,-0.72 -0.69,-0.72c-0.381,0 -0.69,0.323 -0.69,0.72c0,0.397 0.309,0.72 0.69,0.72c0.381,0 0.69,-0.323 0.69,-0.72Z" style="stroke:#000;stroke-width:0.72px;"/><path d="M76.14,371.58c0,-0.397 -0.323,-0.72 -0.72,-0.72c-0.397,0 -0.72,0.323 -0.72,0.72c0,0.397 0.323,0.72 0.72,0.72c0.397,0 0.72,-0.323 0.72,-0.72Z" style="stroke:#000;stroke-width:0.72px;"/><path d="M126.84,371.58c0,-0.397 -0.309,-0.72 -0.69,-0.72c-0.381,0 -0.69,0.323 -0.69,0.72c0,0.397 0.309,0.72 0.69,0.72c0.381,0 0.69,-0.323 0.69,-0.72Z" style="stroke:#000;stroke-width:0.72px;"/><path d="M176.34,371.58c0,-0.397 -0.323,-0.72 -0.72,-0.72c-0.397,0 -0.72,0.323 -0.72,0.72c0,0.397 0.323,0.72 0.72,0.72c0.397,0 0.72,-0.323 0.72,-0.72Z" style="stroke:#000;stroke-width:0.72px;"/><path d="M226.62,371.58c0,-0.397 -0.309,-0.72 -0.69,-0.72c-0.381,0 -0.69,0.323 -0.69,0.72c0,0.397 0.309,0.72 0.69,0.72c0.381,0 0.69,-0.323 0.69,-0.72Z" style="stroke:#000;stroke-width:0.72px;"/><path d="M276.06,371.58c0,-0.397 -0.309,-0.72 -0.69,-0.72c-0.381,0 -0.69,0.323 -0.69,0.72c0,0.397 0.309,0.72 0.69,0.72c0.381,0 0.69,-0.323 0.69,-0.72Z" style="stroke:#000;stroke-width:0.72px;"/><path d="M325.92,371.58c0,-0.397 -0.309,-0.72 -0.69,-0.72c-0.381,0 -0.69,0.323 -0.69,0.72c0,0.397 0.309,0.72 0.69,0.72c0.381,0 0.69,-0.323 0.69,-0.72Z" style="stroke:#000;stroke-width:0.72px;"/><path d="M375.36,371.58c0,-0.397 -0.309,-0.72 -0.69,-0.72c-0.381,0 -0.69,0.323 -0.69,0.72c0,0.397 0.309,0.72 0.69,0.72c0.381,0 0.69,-0.323 0.69,-0.72Z" style="stroke:#000;stroke-width:0.72px;"/><path d="M425.64,371.58c0,-0.397 -0.309,-0.72 -0.69,-0.72c-0.381,0 -0.69,0.323 -0.69,0.72c0,0.397 0.309,0.72 0.69,0.72c0.381,0 0.69,-0.323 0.69,-0.72Z" style="stroke:#000;stroke-width:0.72px;"/><path d="M475.14,371.58c0,-0.397 -0.323,-0.72 -0.72,-0.72c-0.397,0 -0.72,0.323 -0.72,0.72c0,0.397 0.323,0.72 0.72,0.72c0.397,0 0.72,-0.323 0.72,-0.72Z" style="stroke:#000;stroke-width:0.72px;"/><path d="M1.74,357.33c0,-0.381 -0.309,-0.69 -0.69,-0.69c-0.381,0 -0.69,0.309 -0.69,0.69c0,0.381 0.309,0.69 0.69,0.69c0.381,0 0.69,-0.309 0.69,-0.69Z" style="stroke:#000;stroke-width:0.72px;"/><path d="M51.24,357.33c0,-0.381 -0.323,-0.69 -0.72,-0.69c-0.397,0 -0.72,0.309 -0.72,0.69c0,0.381 0.323,0.69 0.72,0.69c0.397,0 0.72,-0.309 0.72,-0.69Z" style="stroke:#000;stroke-width:0.72px;"/><path d="M101.94,357.33c0,-0.381 -0.309,-0.69 -0.69,-0.69c-0.381,0 -0.69,0.309 -0.69,0.69c0,0.381 0.309,0.69 0.69,0.69c0.381,0 0.69,-0.309 0.69,-0.69Z" style="stroke:#000;stroke-width:0.72px;"/><path d="M151.44,357.33c0,-0.381 -0.323,-0.69 -0.72,-0.69c-0.397,0 -0.72,0.309 -0.72,0.69c0,0.381 0.323,0.69 0.72,0.69c0.397,0 0.72,-0.309 0.72,-0.69Z" style="stroke:#000;stroke-width:0.72px;"/><path d="M201.72,357.33c0,-0.381 -0.309,-0.69 -0.69,-0.69c-0.381,0 -0.69,0.309 -0.69,0.69c0,0.381 0.309,0.69 0.69,0.69c0.381,0 0.69,-0.309 0.69,-0.69Z" style="stroke:#000;stroke-width:0.72px;"/><path d="M251.16,357.33c0,-0.381 -0.309,-0.69 -0.69,-0.69c-0.381,0 -0.69,0.309 -0.69,0.69c0,0.381 0.309,0.69 0.69,0.69c0.381,0 0.69,-0.309 0.69,-0.69Z" style="stroke:#000;stroke-width:0.72px;"/><path d="M301.02,357.33c0,-0.381 -0.309,-0.69 -0.69,-0.69c-0.381,0 -0.69,0.309 -0.69,0.69c0,0.381 0.309,0.69 0.69,0.69c0.381,0 0.69,-0.309 0.69,-0.69Z" style="stroke:#000;stroke-width:0.72px;"/><path d="M350.46,357.33c0,-0.381 -0.309,-0.69 -0.69,-0.69c-0.381,0 -0.69,0.309 -0.69,0.69c0,0.381 0.309,0.69 0.69,0.69c0.381,0 0.69,-0.309 0.69,-0.69Z" style="stroke:#000;stroke-width:0.72px;"/><path d="M400.74,357.33c0,-0.381 -0.309,-0.69 -0.69,-0.69c-0.381,0 -0.69,0.309 -0.69,0.69c0,0.381 0.309,0.69 0.69,0.69c0.381,0 0.69,-0.309 0.69,-0.69Z" style="stroke:#000;stroke-width:0.72px;"/><path d="M450.24,357.33c0,-0.381 -0.323,-0.69 -0.72,-0.69c-0.397,0 -0.72,0.309 -0.72,0.69c0,0.381 0.323,0.69 0.72,0.69c0.397,0 0.72,-0.309 0.72,-0.69Z" style="stroke:#000;stroke-width:0.72px;"/><path d="M500.52,357.33c0,-0.381 -0.309,-0.69 -0.69,-0.69c-0.381,0 -0.69,0.309 -0.69,0.69c0,0.381 0.309,0.69 0.69,0.69c0.381,0 0.69,-0.309 0.69,-0.69Z" style="stroke:#000;stroke-width:0.72px;"/><path d="M26.64,343.08c0,-0.397 -0.309,-0.72 -0.69,-0.72c-0.381,0 -0.69,0.323 -0.69,0.72c0,0.397 0.309,0.72 0.69,0.72c0.381,0 0.69,-0.323 0.69,-0.72Z" style="stroke:#000;stroke-width:0.72px;"/><path d="M76.14,343.08c0,-0.397 -0.323,-0.72 -0.72,-0.72c-0.397,0 -0.72,0.323 -0.72,0.72c0,0.397 0.323,0.72 0.72,0.72c0.397,0 0.72,-0.323 0.72,-0.72Z" style="stroke:#000;stroke-width:0.72px;"/><path d="M126.84,343.08c0,-0.397 -0.309,-0.72 -0.69,-0.72c-0.381,0 -0.69,0.323 -0.69,0.72c0,0.397 0.309,0.72 0.69,0.72c0.381,0 0.69,-0.323 0.69,-0.72Z" style="stroke:#000;stroke-width:0.72px;"/><path d="M176.34,343.08c0,-0.397 -0.323,-0.72 -0.72,-0.72c-0.397,0 -0.72,0.323 -0.72,0.72c0,0.397 0.323,0.72 0.72,0.72c0.397,0 0.72,-0.323 0.72,-0.72Z" style="stroke:#000;stroke-width:0.72px;"/><path d="M226.62,343.08c0,-0.397 -0.309,-0.72 -0.69,-0.72c-0.381,0 -0.69,0.323 -0.69,0.72c0,0.397 0.309,0.72 0.69,0.72c0.381,0 0.69,-0.323 0.69,-0.72Z" style="stroke:#000;stroke-width:0.72px;"/><path d="M276.06,343.08c0,-0.397 -0.309,-0.72 -0.69,-0.72c-0.381,0 -0.69,0.323 -0.69,0.72c0,0.397 0.309,0.72 0.69,0.72c0.381,0 0.69,-0.323 0.69,-0.72Z" style="stroke:#000;stroke-width:0.72px;"/><path d="M325.92,343.08c0,-0.397 -0.309,-0.72 -0.69,-0.72c-0.381,0 -0.69,0.323 -0.69,0.72c0,0.397 0.309,0.72 0.69,0.72c0.381,0 0.69,-0.323 0.69,-0.72Z" style="stroke:#000;stroke-width:0.72px;"/><path d="M375.36,343.08c0,-0.397 -0.309,-0.72 -0.69,-0.72c-0.381,0 -0.69,0.323 -0.69,0.72c0,0.397 0.309,0.72 0.69,0.72c0.381,0 0.69,-0.323 0.69,-0.72Z" style="stroke:#000;stroke-width:0.72px;"/><path d="M425.64,343.08c0,-0.397 -0.309,-0.72 -0.69,-0.72c-0.381,0 -0.69,0.323 -0.69,0.72c0,0.397 0.309,0.72 0.69,0.72c0.381,0 0.69,-0.323 0.69,-0.72Z" style="stroke:#000;stroke-width:0.72px;"/><path d="M475.14,343.08c0,-0.397 -0.323,-0.72 -0.72,-0.72c-0.397,0 -0.72,0.323 -0.72,0.72c0,0.397 0.323,0.72 0.72,0.72c0.397,0 0.72,-0.323 0.72,-0.72Z" style="stroke:#000;stroke-width:0.72px;"/><path d="M1.74,328.83c0,-0.381 -0.309,-0.69 -0.69,-0.69c-0.381,0 -0.69,0.309 -0.69,0.69c0,0.381 0.309,0.69 0.69,0.69c0.381,0 0.69,-0.309 0.69,-0.69Z" style="stroke:#000;stroke-width:0.72px;"/><path d="M51.24,328.83c0,-0.381 -0.323,-0.69 -0.72,-0.69c-0.397,0 -0.72,0.309 -0.72,0.69c0,0.381 0.323,0.69 0.72,0.69c0.397,0 0.72,-0.309 0.72,-0.69Z" style="stroke:#000;stroke-width:0.72px;"/><path d="M101.94,328.83c0,-0.381 -0.309,-0.69 -0.69,-0.69c-0.381,0 -0.69,0.309 -0.69,0.69c0,0.381 0.309,0.69 0.69,0.69c0.381,0 0.69,-0.309 0.69,-0.69Z" style="stroke:#000;stroke-width:0.72px;"/><path d="M151.44,328.83c0,-0.381 -0.323,-0.69 -0.72,-0.69c-0.397,0 -0.72,0.309 -0.72,0.69c0,0.381 0.323,0.69 0.72,0.69c0.397,0 0.72,-0.309 0.72,-0.69Z" style="stroke:#000;stroke-width:0.72px;"/><path d="M201.72,328.83c0,-0.381 -0.309,-0.69 -0.69,-0.69c-0.381,0 -0.69,0.309 -0.69,0.69c0,0.381 0.309,0.69 0.69,0.69c0.381,0 0.69,-0.309 0.69,-0.69Z" style="stroke:#000;stroke-width:0.72px;"/><path d="M251.16,328.83c0,-0.381 -0.309,-0.69 -0.69,-0.69c-0.381,0 -0.69,0.309 -0.69,0.69c0,0.381 0.309,0.69 0.69,0.69c0.381,0 0.69,-0.309 0.69,-0.69Z" style="stroke:#000;stroke-width:0.72px;"/><path d="M301.02,328.83c0,-0.381 -0.309,-0.69 -0.69,-0.69c-0.381,0 -0.69,0.309 -0.69,0.69c0,0.381 0.309,0.69 0.69,0.69c0.381,0 0.69,-0.309 0.69,-0.69Z" style="stroke:#000;stroke-width:0.72px;"/><path d="M350.46,328.83c0,-0.381 -0.309,-0.69 -0.69,-0.69c-0.381,0 -0.69,0.309 -0.69,0.69c0,0.381 0.309,0.69 0.69,0.69c0.381,0 0.69,-0.309 0.69,-0.69Z" style="stroke:#000;stroke-width:0.72px;"/><path d="M400.74,328.83c0,-0.381 -0.309,-0.69 -0.69,-0.69c-0.381,0 -0.69,0.309 -0.69,0.69c0,0.381 0.309,0.69 0.69,0.69c0.381,0 0.69,-0.309 0.69,-0.69Z" style="stroke:#000;stroke-width:0.72px;"/><path d="M450.24,328.83c0,-0.381 -0.323,-0.69 -0.72,-0.69c-0.397,0 -0.72,0.309 -0.72,0.69c0,0.381 0.323,0.69 0.72,0.69c0.397,0 0.72,-0.309 0.72,-0.69Z" style="stroke:#000;stroke-width:0.72px;"/><path d="M500.52,328.83c0,-0.381 -0.309,-0.69 -0.69,-0.69c-0.381,0 -0.69,0.309 -0.69,0.69c0,0.381 0.309,0.69 0.69,0.69c0.381,0 0.69,-0.309 0.69,-0.69Z" style="stroke:#000;stroke-width:0.72px;"/><path d="M26.64,314.58c0,-0.397 -0.309,-0.72 -0.69,-0.72c-0.381,0 -0.69,0.323 -0.69,0.72c0,0.397 0.309,0.72 0.69,0.72c0.381,0 0.69,-0.323 0.69,-0.72Z" style="stroke:#000;stroke-width:0.72px;"/><path d="M76.14,314.58c0,-0.397 -0.323,-0.72 -0.72,-0.72c-0.397,0 -0.72,0.323 -0.72,0.72c0,0.397 0.323,0.72 0.72,0.72c0.397,0 0.72,-0.323 0.72,-0.72Z" style="stroke:#000;stroke-width:0.72px;"/><path d="M126.84,314.58c0,-0.397 -0.309,-0.72 -0.69,-0.72c-0.381,0 -0.69,0.323 -0.69,0.72c0,0.397 0.309,0.72 0.69,0.72c0.381,0 0.69,-0.323 0.69,-0.72Z" style="stroke:#000;stroke-width:0.72px;"/><path d="M176.34,314.58c0,-0.397 -0.323,-0.72 -0.72,-0.72c-0.397,0 -0.72,0.323 -0.72,0.72c0,0.397 0.323,0.72 0.72,0.72c0.397,0 0.72,-0.323 0.72,-0.72Z" style="stroke:#000;stroke-width:0.72px;"/><path d="M226.62,314.58c0,-0.397 -0.309,-0.72 -0.69,-0.72c-0.381,0 -0.69,0.323 -0.69,0.72c0,0.397 0.309,0.72 0.69,0.72c0.381,0 0.69,-0.323 0.69,-0.72Z" style="stroke:#000;stroke-width:0.72px;"/><path d="M276.06,314.58c0,-0.397 -0.309,-0.72 -0.69,-0.72c-0.381,0 -0.69,0.323 -0.69,0.72c0,0.397 0.309,0.72 0.69,0.72c0.381,0 0.69,-0.323 0.69,-0.72Z" style="stroke:#000;stroke-width:0.72px;"/><path d="M325.92,314.58c0,-0.397 -0.309,-0.72 -0.69,-0.72c-0.381,0 -0.69,0.323 -0.69,0.72c0,0.397 0.309,0.72 0.69,0.72c0.381,0 0.69,-0.323 0.69,-0.72Z" style="stroke:#000;stroke-width:0.72px;"/><path d="M375.36,314.58c0,-0.397 -0.309,-0.72 -0.69,-0.72c-0.381,0 -0.69,0.323 -0.69,0.72c0,0.397 0.309,0.72 0.69,0.72c0.381,0 0.69,-0.323 0.69,-0.72Z" style="stroke:#000;stroke-width:0.72px;"/><path d="M425.64,314.58c0,-0.397 -0.309,-0.72 -0.69,-0.72c-0.381,0 -0.69,0.323 -0.69,0.72c0,0.397 0.309,0.72 0.69,0.72c0.381,0 0.69,-0.323 0.69,-0.72Z" style="stroke:#000;stroke-width:0.72px;"/><path d="M475.14,314.58c0,-0.397 -0.323,-0.72 -0.72,-0.72c-0.397,0 -0.72,0.323 -0.72,0.72c0,0.397 0.323,0.72 0.72,0.72c0.397,0 0.72,-0.323 0.72,-0.72Z" style="stroke:#000;stroke-width:0.72px;"/><path d="M1.74,300.33c0,-0.381 -0.309,-0.69 -0.69,-0.69c-0.381,0 -0.69,0.309 -0.69,0.69c0,0.381 0.309,0.69 0.69,0.69c0.381,0 0.69,-0.309 0.69,-0.69Z" style="stroke:#000;stroke-width:0.72px;"/><path d="M51.24,300.33c0,-0.381 -0.323,-0.69 -0.72,-0.69c-0.397,0 -0.72,0.309 -0.72,0.69c0,0.381 0.323,0.69 0.72,0.69c0.397,0 0.72,-0.309 0.72,-0.69Z" style="stroke:#000;stroke-width:0.72px;"/><path d="M101.94,300.33c0,-0.381 -0.309,-0.69 -0.69,-0.69c-0.381,0 -0.69,0.309 -0.69,0.69c0,0.381 0.309,0.69 0.69,0.69c0.381,0 0.69,-0.309 0.69,-0.69Z" style="stroke:#000;stroke-width:0.72px;"/><path d="M151.44,300.33c0,-0.381 -0.323,-0.69 -0.72,-0.69c-0.397,0 -0.72,0.309 -0.72,0.69c0,0.381 0.323,0.69 0.72,0.69c0.397,0 0.72,-0.309 0.72,-0.69Z" style="stroke:#000;stroke-width:0.72px;"/><path d="M201.72,300.33c0,-0.381 -0.309,-0.69 -0.69,-0.69c-0.381,0 -0.69,0.309 -0.69,0.69c0,0.381 0.309,0.69 0.69,0.69c0.381,0 0.69,-0.309 0.69,-0.69Z" style="stroke:#000;stroke-width:0.72px;"/><path d="M251.16,300.33c0,-0.381 -0.309,-0.69 -0.69,-0.69c-0.381,0 -0.69,0.309 -0.69,0.69c0,0.381 0.309,0.69 0.69,0.69c0.381,0 0.69,-0.309 0.69,-0.69Z" style="stroke:#000;stroke-width:0.72px;"/><path d="M301.02,300.33c0,-0.381 -0.309,-0.69 -0.69,-0.69c-0.381,0 -0.69,0.309 -0.69,0.69c0,0.381 0.309,0.69 0.69,0.69c0.381,0 0.69,-0.309 0.69,-0.69Z" style="stroke:#000;stroke-width:0.72px;"/><path d="M350.46,300.33c0,-0.381 -0.309,-0.69 -0.69,-0.69c-0.381,0 -0.69,0.309 -0.69,0.69c0,0.381 0.309,0.69 0.69,0.69c0.381,0 0.69,-0.309 0.69,-0.69Z" style="stroke:#000;stroke-width:0.72px;"/><path d="M400.74,300.33c0,-0.381 -0.309,-0.69 -0.69,-0.69c-0.381,0 -0.69,0.309 -0.69,0.69c0,0.381 0.309,0.69 0.69,0.69c0.381,0 0.69,-0.309 0.69,-0.69Z" style="stroke:#000;stroke-width:0.72px;"/><path d="M450.24,300.33c0,-0.381 -0.323,-0.69 -0.72,-0.69c-0.397,0 -0.72,0.309 -0.72,0.69c0,0.381 0.323,0.69 0.72,0.69c0.397,0 0.72,-0.309 0.72,-0.69Z" style="stroke:#000;stroke-width:0.72px;"/><path d="M500.52,300.33c0,-0.381 -0.309,-0.69 -0.69,-0.69c-0.381,0 -0.69,0.309 -0.69,0.69c0,0.381 0.309,0.69 0.69,0.69c0.381,0 0.69,-0.309 0.69,-0.69Z" style="stroke:#000;stroke-width:0.72px;"/><path d="M26.64,286.08c0,-0.397 -0.309,-0.72 -0.69,-0.72c-0.381,0 -0.69,0.323 -0.69,0.72c0,0.397 0.309,0.72 0.69,0.72c0.381,0 0.69,-0.323 0.69,-0.72Z" style="stroke:#000;stroke-width:0.72px;"/><path d="M76.14,286.08c0,-0.397 -0.323,-0.72 -0.72,-0.72c-0.397,0 -0.72,0.323 -0.72,0.72c0,0.397 0.323,0.72 0.72,0.72c0.397,0 0.72,-0.323 0.72,-0.72Z" style="stroke:#000;stroke-width:0.72px;"/><path d="M126.84,286.08c0,-0.397 -0.309,-0.72 -0.69,-0.72c-0.381,0 -0.69,0.323 -0.69,0.72c0,0.397 0.309,0.72 0.69,0.72c0.381,0 0.69,-0.323 0.69,-0.72Z" style="stroke:#000;stroke-width:0.72px;"/><path d="M176.34,286.08c0,-0.397 -0.323,-0.72 -0.72,-0.72c-0.397,0 -0.72,0.323 -0.72,0.72c0,0.397 0.323,0.72 0.72,0.72c0.397,0 0.72,-0.323 0.72,-0.72Z" style="stroke:#000;stroke-width:0.72px;"/><path d="M226.62,286.08c0,-0.397 -0.309,-0.72 -0.69,-0.72c-0.381,0 -0.69,0.323 -0.69,0.72c0,0.397 0.309,0.72 0.69,0.72c0.381,0 0.69,-0.323 0.69,-0.72Z" style="stroke:#000;stroke-width:0.72px;"/><path d="M276.06,286.08c0,-0.397 -0.309,-0.72 -0.69,-0.72c-0.381,0 -0.69,0.323 -0.69,0.72c0,0.397 0.309,0.72 0.69,0.72c0.381,0 0.69,-0.323 0.69,-0.72Z" style="stroke:#000;stroke-width:0.72px;"/><path d="M325.92,286.08c0,-0.397 -0.309,-0.72 -0.69,-0.72c-0.381,0 -0.69,0.323 -0.69,0.72c0,0.397 0.309,0.72 0.69,0.72c0.381,0 0.69,-0.323 0.69,-0.72Z" style="stroke:#000;stroke-width:0.72px;"/><path d="M375.36,286.08c0,-0.397 -0.309,-0.72 -0.69,-0.72c-0.381,0 -0.69,0.323 -0.69,0.72c0,0.397 0.309,0.72 0.69,0.72c0.381,0 0.69,-0.323 0.69,-0.72Z" style="stroke:#000;stroke-width:0.72px;"/><path d="M425.64,286.08c0,-0.397 -0.309,-0.72 -0.69,-0.72c-0.381,0 -0.69,0.323 -0.69,0.72c0,0.397 0.309,0.72 0.69,0.72c0.381,0 0.69,-0.323 0.69,-0.72Z" style="stroke:#000;stroke-width:0.72px;"/><path d="M475.14,286.08c0,-0.397 -0.323,-0.72 -0.72,-0.72c-0.397,0 -0.72,0.323 -0.72,0.72c0,0.397 0.323,0.72 0.72,0.72c0.397,0 0.72,-0.323 0.72,-0.72Z" style="stroke:#000;stroke-width:0.72px;"/><path d="M1.74,271.83c0,-0.381 -0.309,-0.69 -0.69,-0.69c-0.381,0 -0.69,0.309 -0.69,0.69c0,0.381 0.309,0.69 0.69,0.69c0.381,0 0.69,-0.309 0.69,-0.69Z" style="stroke:#000;stroke-width:0.72px;"/><path d="M51.24,271.83c0,-0.381 -0.323,-0.69 -0.72,-0.69c-0.397,0 -0.72,0.309 -0.72,0.69c0,0.381 0.323,0.69 0.72,0.69c0.397,0 0.72,-0.309 0.72,-0.69Z" style="stroke:#000;stroke-width:0.72px;"/><path d="M101.94,271.83c0,-0.381 -0.309,-0.69 -0.69,-0.69c-0.381,0 -0.69,0.309 -0.69,0.69c0,0.381 0.309,0.69 0.69,0.69c0.381,0 0.69,-0.309 0.69,-0.69Z" style="stroke:#000;stroke-width:0.72px;"/><path d="M151.44,271.83c0,-0.381 -0.323,-0.69 -0.72,-0.69c-0.397,0 -0.72,0.309 -0.72,0.69c0,0.381 0.323,0.69 0.72,0.69c0.397,0 0.72,-0.309 0.72,-0.69Z" style="stroke:#000;stroke-width:0.72px;"/><path d="M201.72,271.83c0,-0.381 -0.309,-0.69 -0.69,-0.69c-0.381,0 -0.69,0.309 -0.69,0.69c0,0.381 0.309,0.69 0.69,0.69c0.381,0 0.69,-0.309 0.69,-0.69Z" style="stroke:#000;stroke-width:0.72px;"/><path d="M251.16,271.83c0,-0.381 -0.309,-0.69 -0.69,-0.69c-0.381,0 -0.69,0.309 -0.69,0.69c0,0.381 0.309,0.69 0.69,0.69c0.381,0 0.69,-0.309 0.69,-0.69Z" style="stroke:#000;stroke-width:0.72px;"/><path d="M301.02,271.83c0,-0.381 -0.309,-0.69 -0.69,-0.69c-0.381,0 -0.69,0.309 -0.69,0.69c0,0.381 0.309,0.69 0.69,0.69c0.381,0 0.69,-0.309 0.69,-0.69Z" style="stroke:#000;stroke-width:0.72px;"/><path d="M350.46,271.83c0,-0.381 -0.309,-0.69 -0.69,-0.69c-0.381,0 -0.69,0.309 -0.69,0.69c0,0.381 0.309,0.69 0.69,0.69c0.381,0 0.69,-0.309 0.69,-0.69Z" style="stroke:#000;stroke-width:0.72px;"/><path d="M400.74,271.83c0,-0.381 -0.309,-0.69 -0.69,-0.69c-0.381,0 -0.69,0.309 -0.69,0.69c0,0.381 0.309,0.69 0.69,0.69c0.381,0 0.69,-0.309 0.69,-0.69Z" style="stroke:#000;stroke-width:0.72px;"/><path d="M450.24,271.83c0,-0.381 -0.323,-0.69 -0.72,-0.69c-0.397,0 -0.72,0.309 -0.72,0.69c0,0.381 0.323,0.69 0.72,0.69c0.397,0 0.72,-0.309 0.72,-0.69Z" style="stroke:#000;stroke-width:0.72px;"/><path d="M500.52,271.83c0,-0.381 -0.309,-0.69 -0.69,-0.69c-0.381,0 -0.69,0.309 -0.69,0.69c0,0.381 0.309,0.69 0.69,0.69c0.381,0 0.69,-0.309 0.69,-0.69Z" style="stroke:#000;stroke-width:0.72px;"/><path d="M26.64,257.58c0,-0.397 -0.309,-0.72 -0.69,-0.72c-0.381,0 -0.69,0.323 -0.69,0.72c0,0.397 0.309,0.72 0.69,0.72c0.381,0 0.69,-0.323 0.69,-0.72Z" style="stroke:#000;stroke-width:0.72px;"/><path d="M76.14,257.58c0,-0.397 -0.323,-0.72 -0.72,-0.72c-0.397,0 -0.72,0.323 -0.72,0.72c0,0.397 0.323,0.72 0.72,0.72c0.397,0 0.72,-0.323 0.72,-0.72Z" style="stroke:#000;stroke-width:0.72px;"/><path d="M126.84,257.58c0,-0.397 -0.309,-0.72 -0.69,-0.72c-0.381,0 -0.69,0.323 -0.69,0.72c0,0.397 0.309,0.72 0.69,0.72c0.381,0 0.69,-0.323 0.69,-0.72Z" style="stroke:#000;stroke-width:0.72px;"/><path d="M176.34,257.58c0,-0.397 -0.323,-0.72 -0.72,-0.72c-0.397,0 -0.72,0.323 -0.72,0.72c0,0.397 0.323,0.72 0.72,0.72c0.397,0 0.72,-0.323 0.72,-0.72Z" style="stroke:#000;stroke-width:0.72px;"/><path d="M226.62,257.58c0,-0.397 -0.309,-0.72 -0.69,-0.72c-0.381,0 -0.69,0.323 -0.69,0.72c0,0.397 0.309,0.72 0.69,0.72c0.381,0 0.69,-0.323 0.69,-0.72Z" style="stroke:#000;stroke-width:0.72px;"/><path d="M276.06,257.58c0,-0.397 -0.309,-0.72 -0.69,-0.72c-0.381,0 -0.69,0.323 -0.69,0.72c0,0.397 0.309,0.72 0.69,0.72c0.381,0 0.69,-0.323 0.69,-0.72Z" style="stroke:#000;stroke-width:0.72px;"/><path d="M325.92,257.58c0,-0.397 -0.309,-0.72 -0.69,-0.72c-0.381,0 -0.69,0.323 -0.69,0.72c0,0.397 0.309,0.72 0.69,0.72c0.381,0 0.69,-0.323 0.69,-0.72Z" style="stroke:#000;stroke-width:0.72px;"/><path d="M375.36,257.58c0,-0.397 -0.309,-0.72 -0.69,-0.72c-0.381,0 -0.69,0.323 -0.69,0.72c0,0.397 0.309,0.72 0.69,0.72c0.381,0 0.69,-0.323 0.69,-0.72Z" style="stroke:#000;stroke-width:0.72px;"/><path d="M425.64,257.58c0,-0.397 -0.309,-0.72 -0.69,-0.72c-0.381,0 -0.69,0.323 -0.69,0.72c0,0.397 0.309,0.72 0.69,0.72c0.381,0 0.69,-0.323 0.69,-0.72Z" style="stroke:#000;stroke-width:0.72px;"/><path d="M475.14,257.58c0,-0.397 -0.323,-0.72 -0.72,-0.72c-0.397,0 -0.72,0.323 -0.72,0.72c0,0.397 0.323,0.72 0.72,0.72c0.397,0 0.72,-0.323 0.72,-0.72Z" style="stroke:#000;stroke-width:0.72px;"/><path d="M1.74,243.33c0,-0.381 -0.309,-0.69 -0.69,-0.69c-0.381,0 -0.69,0.309 -0.69,0.69c0,0.381 0.309,0.69 0.69,0.69c0.381,0 0.69,-0.309 0.69,-0.69Z" style="stroke:#000;stroke-width:0.72px;"/><path d="M51.24,243.33c0,-0.381 -0.323,-0.69 -0.72,-0.69c-0.397,0 -0.72,0.309 -0.72,0.69c0,0.381 0.323,0.69 0.72,0.69c0.397,0 0.72,-0.309 0.72,-0.69Z" style="stroke:#000;stroke-width:0.72px;"/><path d="M101.94,243.33c0,-0.381 -0.309,-0.69 -0.69,-0.69c-0.381,0 -0.69,0.309 -0.69,0.69c0,0.381 0.309,0.69 0.69,0.69c0.381,0 0.69,-0.309 0.69,-0.69Z" style="stroke:#000;stroke-width:0.72px;"/><path d="M151.44,243.33c0,-0.381 -0.323,-0.69 -0.72,-0.69c-0.397,0 -0.72,0.309 -0.72,0.69c0,0.381 0.323,0.69 0.72,0.69c0.397,0 0.72,-0.309 0.72,-0.69Z" style="stroke:#000;stroke-width:0.72px;"/><path d="M201.72,243.33c0,-0.381 -0.309,-0.69 -0.69,-0.69c-0.381,0 -0.69,0.309 -0.69,0.69c0,0.381 0.309,0.69 0.69,0.69c0.381,0 0.69,-0.309 0.69,-0.69Z" style="stroke:#000;stroke-width:0.72px;"/><path d="M251.16,243.33c0,-0.381 -0.309,-0.69 -0.69,-0.69c-0.381,0 -0.69,0.309 -0.69,0.69c0,0.381 0.309,0.69 0.69,0.69c0.381,0 0.69,-0.309 0.69,-0.69Z" style="stroke:#000;stroke-width:0.72px;"/><path d="M301.02,243.33c0,-0.381 -0.309,-0.69 -0.69,-0.69c-0.381,0 -0.69,0.309 -0.69,0.69c0,0.381 0.309,0.69 0.69,0.69c0.381,0 0.69,-0.309 0.69,-0.69Z" style="stroke:#000;stroke-width:0.72px;"/><path d="M350.46,243.33c0,-0.381 -0.309,-0.69 -0.69,-0.69c-0.381,0 -0.69,0.309 -0.69,0.69c0,0.381 0.309,0.69 0.69,0.69c0.381,0 0.69,-0.309 0.69,-0.69Z" style="stroke:#000;stroke-width:0.72px;"/><path d="M400.74,243.33c0,-0.381 -0.309,-0.69 -0.69,-0.69c-0.381,0 -0.69,0.309 -0.69,0.69c0,0.381 0.309,0.69 0.69,0.69c0.381,0 0.69,-0.309 0.69,-0.69Z" style="stroke:#000;stroke-width:0.72px;"/><path d="M450.24,243.33c0,-0.381 -0.323,-0.69 -0.72,-0.69c-0.397,0 -0.72,0.309 -0.72,0.69c0,0.381 0.323,0.69 0.72,0.69c0.397,0 0.72,-0.309 0.72,-0.69Z" style="stroke:#000;stroke-width:0.72px;"/><path d="M500.52,243.33c0,-0.381 -0.309,-0.69 -0.69,-0.69c-0.381,0 -0.69,0.309 -0.69,0.69c0,0.381 0.309,0.69 0.69,0.69c0.381,0 0.69,-0.309 0.69,-0.69Z" style="stroke:#000;stroke-width:0.72px;"/><path d="M26.64,229.08c0,-0.397 -0.309,-0.72 -0.69,-0.72c-0.381,0 -0.69,0.323 -0.69,0.72c0,0.397 0.309,0.72 0.69,0.72c0.381,0 0.69,-0.323 0.69,-0.72Z" style="stroke:#000;stroke-width:0.72px;"/><path d="M76.14,229.08c0,-0.397 -0.323,-0.72 -0.72,-0.72c-0.397,0 -0.72,0.323 -0.72,0.72c0,0.397 0.323,0.72 0.72,0.72c0.397,0 0.72,-0.323 0.72,-0.72Z" style="stroke:#000;stroke-width:0.72px;"/><path d="M126.84,229.08c0,-0.397 -0.309,-0.72 -0.69,-0.72c-0.381,0 -0.69,0.323 -0.69,0.72c0,0.397 0.309,0.72 0.69,0.72c0.381,0 0.69,-0.323 0.69,-0.72Z" style="stroke:#000;stroke-width:0.72px;"/><path d="M176.34,229.08c0,-0.397 -0.323,-0.72 -0.72,-0.72c-0.397,0 -0.72,0.323 -0.72,0.72c0,0.397 0.323,0.72 0.72,0.72c0.397,0 0.72,-0.323 0.72,-0.72Z" style="stroke:#000;stroke-width:0.72px;"/><path d="M226.62,229.08c0,-0.397 -0.309,-0.72 -0.69,-0.72c-0.381,0 -0.69,0.323 -0.69,0.72c0,0.397 0.309,0.72 0.69,0.72c0.381,0 0.69,-0.323 0.69,-0.72Z" style="stroke:#000;stroke-width:0.72px;"/><path d="M276.06,229.08c0,-0.397 -0.309,-0.72 -0.69,-0.72c-0.381,0 -0.69,0.323 -0.69,0.72c0,0.397 0.309,0.72 0.69,0.72c0.381,0 0.69,-0.323 0.69,-0.72Z" style="stroke:#000;stroke-width:0.72px;"/><path d="M325.92,229.08c0,-0.397 -0.309,-0.72 -0.69,-0.72c-0.381,0 -0.69,0.323 -0.69,0.72c0,0.397 0.309,0.72 0.69,0.72c0.381,0 0.69,-0.323 0.69,-0.72Z" style="stroke:#000;stroke-width:0.72px;"/><path d="M375.36,229.08c0,-0.397 -0.309,-0.72 -0.69,-0.72c-0.381,0 -0.69,0.323 -0.69,0.72c0,0.397 0.309,0.72 0.69,0.72c0.381,0 0.69,-0.323 0.69,-0.72Z" style="stroke:#000;stroke-width:0.72px;"/><path d="M425.64,229.08c0,-0.397 -0.309,-0.72 -0.69,-0.72c-0.381,0 -0.69,0.323 -0.69,0.72c0,0.397 0.309,0.72 0.69,0.72c0.381,0 0.69,-0.323 0.69,-0.72Z" style="stroke:#000;stroke-width:0.72px;"/><path d="M475.14,229.08c0,-0.397 -0.323,-0.72 -0.72,-0.72c-0.397,0 -0.72,0.323 -0.72,0.72c0,0.397 0.323,0.72 0.72,0.72c0.397,0 0.72,-0.323 0.72,-0.72Z" style="stroke:#000;stroke-width:0.72px;"/><path d="M1.74,214.83c0,-0.381 -0.309,-0.69 -0.69,-0.69c-0.381,0 -0.69,0.309 -0.69,0.69c0,0.381 0.309,0.69 0.69,0.69c0.381,0 0.69,-0.309 0.69,-0.69Z" style="stroke:#000;stroke-width:0.72px;"/><path d="M51.24,214.83c0,-0.381 -0.323,-0.69 -0.72,-0.69c-0.397,0 -0.72,0.309 -0.72,0.69c0,0.381 0.323,0.69 0.72,0.69c0.397,0 0.72,-0.309 0.72,-0.69Z" style="stroke:#000;stroke-width:0.72px;"/><path d="M101.94,214.83c0,-0.381 -0.309,-0.69 -0.69,-0.69c-0.381,0 -0.69,0.309 -0.69,0.69c0,0.381 0.309,0.69 0.69,0.69c0.381,0 0.69,-0.309 0.69,-0.69Z" style="stroke:#000;stroke-width:0.72px;"/><path d="M151.44,214.83c0,-0.381 -0.323,-0.69 -0.72,-0.69c-0.397,0 -0.72,0.309 -0.72,0.69c0,0.381 0.323,0.69 0.72,0.69c0.397,0 0.72,-0.309 0.72,-0.69Z" style="stroke:#000;stroke-width:0.72px;"/><path d="M201.72,214.83c0,-0.381 -0.309,-0.69 -0.69,-0.69c-0.381,0 -0.69,0.309 -0.69,0.69c0,0.381 0.309,0.69 0.69,0.69c0.381,0 0.69,-0.309 0.69,-0.69Z" style="stroke:#000;stroke-width:0.72px;"/><path d="M251.16,214.83c0,-0.381 -0.309,-0.69 -0.69,-0.69c-0.381,0 -0.69,0.309 -0.69,0.69c0,0.381 0.309,0.69 0.69,0.69c0.381,0 0.69,-0.309 0.69,-0.69Z" style="stroke:#000;stroke-width:0.72px;"/><path d="M301.02,214.83c0,-0.381 -0.309,-0.69 -0.69,-0.69c-0.381,0 -0.69,0.309 -0.69,0.69c0,0.381 0.309,0.69 0.69,0.69c0.381,0 0.69,-0.309 0.69,-0.69Z" style="stroke:#000;stroke-width:0.72px;"/><path d="M350.46,214.83c0,-0.381 -0.309,-0.69 -0.69,-0.69c-0.381,0 -0.69,0.309 -0.69,0.69c0,0.381 0.309,0.69 0.69,0.69c0.381,0 0.69,-0.309 0.69,-0.69Z" style="stroke:#000;stroke-width:0.72px;"/><path d="M400.74,214.83c0,-0.381 -0.309,-0.69 -0.69,-0.69c-0.381,0 -0.69,0.309 -0.69,0.69c0,0.381 0.309,0.69 0.69,0.69c0.381,0 0.69,-0.309 0.69,-0.69Z" style="stroke:#000;stroke-width:0.72px;"/><path d="M450.24,214.83c0,-0.381 -0.323,-0.69 -0.72,-0.69c-0.397,0 -0.72,0.309 -0.72,0.69c0,0.381 0.323,0.69 0.72,0.69c0.397,0 0.72,-0.309 0.72,-0.69Z" style="stroke:#000;stroke-width:0.72px;"/><path d="M500.52,214.83c0,-0.381 -0.309,-0.69 -0.69,-0.69c-0.381,0 -0.69,0.309 -0.69,0.69c0,0.381 0.309,0.69 0.69,0.69c0.381,0 0.69,-0.309 0.69,-0.69Z" style="stroke:#000;stroke-width:0.72px;"/><path d="M26.64,200.58c0,-0.397 -0.309,-0.72 -0.69,-0.72c-0.381,0 -0.69,0.323 -0.69,0.72c0,0.397 0.309,0.72 0.69,0.72c0.381,0 0.69,-0.323 0.69,-0.72Z" style="stroke:#000;stroke-width:0.72px;"/><path d="M76.14,200.58c0,-0.397 -0.323,-0.72 -0.72,-0.72c-0.397,0 -0.72,0.323 -0.72,0.72c0,0.397 0.323,0.72 0.72,0.72c0.397,0 0.72,-0.323 0.72,-0.72Z" style="stroke:#000;stroke-width:0.72px;"/><path d="M126.84,200.58c0,-0.397 -0.309,-0.72 -0.69,-0.72c-0.381,0 -0.69,0.323 -0.69,0.72c0,0.397 0.309,0.72 0.69,0.72c0.381,0 0.69,-0.323 0.69,-0.72Z" style="stroke:#000;stroke-width:0.72px;"/><path d="M176.34,200.58c0,-0.397 -0.323,-0.72 -0.72,-0.72c-0.397,0 -0.72,0.323 -0.72,0.72c0,0.397 0.323,0.72 0.72,0.72c0.397,0 0.72,-0.323 0.72,-0.72Z" style="stroke:#000;stroke-width:0.72px;"/><path d="M226.62,200.58c0,-0.397 -0.309,-0.72 -0.69,-0.72c-0.381,0 -0.69,0.323 -0.69,0.72c0,0.397 0.309,0.72 0.69,0.72c0.381,0 0.69,-0.323 0.69,-0.72Z" style="stroke:#000;stroke-width:0.72px;"/><path d="M276.06,200.58c0,-0.397 -0.309,-0.72 -0.69,-0.72c-0.381,0 -0.69,0.323 -0.69,0.72c0,0.397 0.309,0.72 0.69,0.72c0.381,0 0.69,-0.323 0.69,-0.72Z" style="stroke:#000;stroke-width:0.72px;"/><path d="M325.92,200.58c0,-0.397 -0.309,-0.72 -0.69,-0.72c-0.381,0 -0.69,0.323 -0.69,0.72c0,0.397 0.309,0.72 0.69,0.72c0.381,0 0.69,-0.323 0.69,-0.72Z" style="stroke:#000;stroke-width:0.72px;"/><path d="M375.36,200.58c0,-0.397 -0.309,-0.72 -0.69,-0.72c-0.381,0 -0.69,0.323 -0.69,0.72c0,0.397 0.309,0.72 0.69,0.72c0.381,0 0.69,-0.323 0.69,-0.72Z" style="stroke:#000;stroke-width:0.72px;"/><path d="M425.64,200.58c0,-0.397 -0.309,-0.72 -0.69,-0.72c-0.381,0 -0.69,0.323 -0.69,0.72c0,0.397 0.309,0.72 0.69,0.72c0.381,0 0.69,-0.323 0.69,-0.72Z" style="stroke:#000;stroke-width:0.72px;"/><path d="M475.14,200.58c0,-0.397 -0.323,-0.72 -0.72,-0.72c-0.397,0 -0.72,0.323 -0.72,0.72c0,0.397 0.323,0.72 0.72,0.72c0.397,0 0.72,-0.323 0.72,-0.72Z" style="stroke:#000;stroke-width:0.72px;"/><path d="M1.74,186.33c0,-0.381 -0.309,-0.69 -0.69,-0.69c-0.381,0 -0.69,0.309 -0.69,0.69c0,0.381 0.309,0.69 0.69,0.69c0.381,0 0.69,-0.309 0.69,-0.69Z" style="stroke:#000;stroke-width:0.72px;"/><path d="M51.24,186.33c0,-0.381 -0.323,-0.69 -0.72,-0.69c-0.397,0 -0.72,0.309 -0.72,0.69c0,0.381 0.323,0.69 0.72,0.69c0.397,0 0.72,-0.309 0.72,-0.69Z" style="stroke:#000;stroke-width:0.72px;"/><path d="M101.94,186.33c0,-0.381 -0.309,-0.69 -0.69,-0.69c-0.381,0 -0.69,0.309 -0.69,0.69c0,0.381 0.309,0.69 0.69,0.69c0.381,0 0.69,-0.309 0.69,-0.69Z" style="stroke:#000;stroke-width:0.72px;"/><path d="M151.44,186.33c0,-0.381 -0.323,-0.69 -0.72,-0.69c-0.397,0 -0.72,0.309 -0.72,0.69c0,0.381 0.323,0.69 0.72,0.69c0.397,0 0.72,-0.309 0.72,-0.69Z" style="stroke:#000;stroke-width:0.72px;"/><path d="M201.72,186.33c0,-0.381 -0.309,-0.69 -0.69,-0.69c-0.381,0 -0.69,0.309 -0.69,0.69c0,0.381 0.309,0.69 0.69,0.69c0.381,0 0.69,-0.309 0.69,-0.69Z" style="stroke:#000;stroke-width:0.72px;"/><path d="M251.16,186.33c0,-0.381 -0.309,-0.69 -0.69,-0.69c-0.381,0 -0.69,0.309 -0.69,0.69c0,0.381 0.309,0.69 0.69,0.69c0.381,0 0.69,-0.309 0.69,-0.69Z" style="stroke:#000;stroke-width:0.72px;"/><path d="M301.02,186.33c0,-0.381 -0.309,-0.69 -0.69,-0.69c-0.381,0 -0.69,0.309 -0.69,0.69c0,0.381 0.309,0.69 0.69,0.69c0.381,0 0.69,-0.309 0.69,-0.69Z" style="stroke:#000;stroke-width:0.72px;"/><path d="M350.46,186.33c0,-0.381 -0.309,-0.69 -0.69,-0.69c-0.381,0 -0.69,0.309 -0.69,0.69c0,0.381 0.309,0.69 0.69,0.69c0.381,0 0.69,-0.309 0.69,-0.69Z" style="stroke:#000;stroke-width:0.72px;"/><path d="M400.74,186.33c0,-0.381 -0.309,-0.69 -0.69,-0.69c-0.381,0 -0.69,0.309 -0.69,0.69c0,0.381 0.309,0.69 0.69,0.69c0.381,0 0.69,-0.309 0.69,-0.69Z" style="stroke:#000;stroke-width:0.72px;"/><path d="M450.24,186.33c0,-0.381 -0.323,-0.69 -0.72,-0.69c-0.397,0 -0.72,0.309 -0.72,0.69c0,0.381 0.323,0.69 0.72,0.69c0.397,0 0.72,-0.309 0.72,-0.69Z" style="stroke:#000;stroke-width:0.72px;"/><path d="M500.52,186.33c0,-0.381 -0.309,-0.69 -0.69,-0.69c-0.381,0 -0.69,0.309 -0.69,0.69c0,0.381 0.309,0.69 0.69,0.69c0.381,0 0.69,-0.309 0.69,-0.69Z" style="stroke:#000;stroke-width:0.72px;"/><path d="M26.64,172.08c0,-0.397 -0.309,-0.72 -0.69,-0.72c-0.381,0 -0.69,0.323 -0.69,0.72c0,0.397 0.309,0.72 0.69,0.72c0.381,0 0.69,-0.323 0.69,-0.72Z" style="stroke:#000;stroke-width:0.72px;"/><path d="M76.14,172.08c0,-0.397 -0.323,-0.72 -0.72,-0.72c-0.397,0 -0.72,0.323 -0.72,0.72c0,0.397 0.323,0.72 0.72,0.72c0.397,0 0.72,-0.323 0.72,-0.72Z" style="stroke:#000;stroke-width:0.72px;"/><path d="M126.84,172.08c0,-0.397 -0.309,-0.72 -0.69,-0.72c-0.381,0 -0.69,0.323 -0.69,0.72c0,0.397 0.309,0.72 0.69,0.72c0.381,0 0.69,-0.323 0.69,-0.72Z" style="stroke:#000;stroke-width:0.72px;"/><path d="M176.34,172.08c0,-0.397 -0.323,-0.72 -0.72,-0.72c-0.397,0 -0.72,0.323 -0.72,0.72c0,0.397 0.323,0.72 0.72,0.72c0.397,0 0.72,-0.323 0.72,-0.72Z" style="stroke:#000;stroke-width:0.72px;"/><path d="M226.62,172.08c0,-0.397 -0.309,-0.72 -0.69,-0.72c-0.381,0 -0.69,0.323 -0.69,0.72c0,0.397 0.309,0.72 0.69,0.72c0.381,0 0.69,-0.323 0.69,-0.72Z" style="stroke:#000;stroke-width:0.72px;"/><path d="M276.06,172.08c0,-0.397 -0.309,-0.72 -0.69,-0.72c-0.381,0 -0.69,0.323 -0.69,0.72c0,0.397 0.309,0.72 0.69,0.72c0.381,0 0.69,-0.323 0.69,-0.72Z" style="stroke:#000;stroke-width:0.72px;"/><path d="M325.92,172.08c0,-0.397 -0.309,-0.72 -0.69,-0.72c-0.381,0 -0.69,0.323 -0.69,0.72c0,0.397 0.309,0.72 0.69,0.72c0.381,0 0.69,-0.323 0.69,-0.72Z" style="stroke:#000;stroke-width:0.72px;"/><path d="M375.36,172.08c0,-0.397 -0.309,-0.72 -0.69,-0.72c-0.381,0 -0.69,0.323 -0.69,0.72c0,0.397 0.309,0.72 0.69,0.72c0.381,0 0.69,-0.323 0.69,-0.72Z" style="stroke:#000;stroke-width:0.72px;"/><path d="M425.64,172.08c0,-0.397 -0.309,-0.72 -0.69,-0.72c-0.381,0 -0.69,0.323 -0.69,0.72c0,0.397 0.309,0.72 0.69,0.72c0.381,0 0.69,-0.323 0.69,-0.72Z" style="stroke:#000;stroke-width:0.72px;"/><path d="M475.14,172.08c0,-0.397 -0.323,-0.72 -0.72,-0.72c-0.397,0 -0.72,0.323 -0.72,0.72c0,0.397 0.323,0.72 0.72,0.72c0.397,0 0.72,-0.323 0.72,-0.72Z" style="stroke:#000;stroke-width:0.72px;"/><path d="M1.74,157.83c0,-0.381 -0.309,-0.69 -0.69,-0.69c-0.381,0 -0.69,0.309 -0.69,0.69c0,0.381 0.309,0.69 0.69,0.69c0.381,0 0.69,-0.309 0.69,-0.69Z" style="stroke:#000;stroke-width:0.72px;"/><path d="M51.24,157.83c0,-0.381 -0.323,-0.69 -0.72,-0.69c-0.397,0 -0.72,0.309 -0.72,0.69c0,0.381 0.323,0.69 0.72,0.69c0.397,0 0.72,-0.309 0.72,-0.69Z" style="stroke:#000;stroke-width:0.72px;"/><path d="M101.94,157.83c0,-0.381 -0.309,-0.69 -0.69,-0.69c-0.381,0 -0.69,0.309 -0.69,0.69c0,0.381 0.309,0.69 0.69,0.69c0.381,0 0.69,-0.309 0.69,-0.69Z" style="stroke:#000;stroke-width:0.72px;"/><path d="M151.44,157.83c0,-0.381 -0.323,-0.69 -0.72,-0.69c-0.397,0 -0.72,0.309 -0.72,0.69c0,0.381 0.323,0.69 0.72,0.69c0.397,0 0.72,-0.309 0.72,-0.69Z" style="stroke:#000;stroke-width:0.72px;"/><path d="M201.72,157.83c0,-0.381 -0.309,-0.69 -0.69,-0.69c-0.381,0 -0.69,0.309 -0.69,0.69c0,0.381 0.309,0.69 0.69,0.69c0.381,0 0.69,-0.309 0.69,-0.69Z" style="stroke:#000;stroke-width:0.72px;"/><path d="M251.16,157.83c0,-0.381 -0.309,-0.69 -0.69,-0.69c-0.381,0 -0.69,0.309 -0.69,0.69c0,0.381 0.309,0.69 0.69,0.69c0.381,0 0.69,-0.309 0.69,-0.69Z" style="stroke:#000;stroke-width:0.72px;"/><path d="M301.02,157.83c0,-0.381 -0.309,-0.69 -0.69,-0.69c-0.381,0 -0.69,0.309 -0.69,0.69c0,0.381 0.309,0.69 0.69,0.69c0.381,0 0.69,-0.309 0.69,-0.69Z" style="stroke:#000;stroke-width:0.72px;"/><path d="M350.46,157.83c0,-0.381 -0.309,-0.69 -0.69,-0.69c-0.381,0 -0.69,0.309 -0.69,0.69c0,0.381 0.309,0.69 0.69,0.69c0.381,0 0.69,-0.309 0.69,-0.69Z" style="stroke:#000;stroke-width:0.72px;"/><path d="M400.74,157.83c0,-0.381 -0.309,-0.69 -0.69,-0.69c-0.381,0 -0.69,0.309 -0.69,0.69c0,0.381 0.309,0.69 0.69,0.69c0.381,0 0.69,-0.309 0.69,-0.69Z" style="stroke:#000;stroke-width:0.72px;"/><path d="M450.24,157.83c0,-0.381 -0.323,-0.69 -0.72,-0.69c-0.397,0 -0.72,0.309 -0.72,0.69c0,0.381 0.323,0.69 0.72,0.69c0.397,0 0.72,-0.309 0.72,-0.69Z" style="stroke:#000;stroke-width:0.72px;"/><path d="M500.52,157.83c0,-0.381 -0.309,-0.69 -0.69,-0.69c-0.381,0 -0.69,0.309 -0.69,0.69c0,0.381 0.309,0.69 0.69,0.69c0.381,0 0.69,-0.309 0.69,-0.69Z" style="stroke:#000;stroke-width:0.72px;"/><path d="M26.64,143.58c0,-0.397 -0.309,-0.72 -0.69,-0.72c-0.381,0 -0.69,0.323 -0.69,0.72c0,0.397 0.309,0.72 0.69,0.72c0.381,0 0.69,-0.323 0.69,-0.72Z" style="stroke:#000;stroke-width:0.72px;"/><path d="M76.14,143.58c0,-0.397 -0.323,-0.72 -0.72,-0.72c-0.397,0 -0.72,0.323 -0.72,0.72c0,0.397 0.323,0.72 0.72,0.72c0.397,0 0.72,-0.323 0.72,-0.72Z" style="stroke:#000;stroke-width:0.72px;"/><path d="M126.84,143.58c0,-0.397 -0.309,-0.72 -0.69,-0.72c-0.381,0 -0.69,0.323 -0.69,0.72c0,0.397 0.309,0.72 0.69,0.72c0.381,0 0.69,-0.323 0.69,-0.72Z" style="stroke:#000;stroke-width:0.72px;"/><path d="M176.34,143.58c0,-0.397 -0.323,-0.72 -0.72,-0.72c-0.397,0 -0.72,0.323 -0.72,0.72c0,0.397 0.323,0.72 0.72,0.72c0.397,0 0.72,-0.323 0.72,-0.72Z" style="stroke:#000;stroke-width:0.72px;"/><path d="M226.62,143.58c0,-0.397 -0.309,-0.72 -0.69,-0.72c-0.381,0 -0.69,0.323 -0.69,0.72c0,0.397 0.309,0.72 0.69,0.72c0.381,0 0.69,-0.323 0.69,-0.72Z" style="stroke:#000;stroke-width:0.72px;"/><path d="M276.06,143.58c0,-0.397 -0.309,-0.72 -0.69,-0.72c-0.381,0 -0.69,0.323 -0.69,0.72c0,0.397 0.309,0.72 0.69,0.72c0.381,0 0.69,-0.323 0.69,-0.72Z" style="stroke:#000;stroke-width:0.72px;"/><path d="M325.92,143.58c0,-0.397 -0.309,-0.72 -0.69,-0.72c-0.381,0 -0.69,0.323 -0.69,0.72c0,0.397 0.309,0.72 0.69,0.72c0.381,0 0.69,-0.323 0.69,-0.72Z" style="stroke:#000;stroke-width:0.72px;"/><path d="M375.36,143.58c0,-0.397 -0.309,-0.72 -0.69,-0.72c-0.381,0 -0.69,0.323 -0.69,0.72c0,0.397 0.309,0.72 0.69,0.72c0.381,0 0.69,-0.323 0.69,-0.72Z" style="stroke:#000;stroke-width:0.72px;"/><path d="M425.64,143.58c0,-0.397 -0.309,-0.72 -0.69,-0.72c-0.381,0 -0.69,0.323 -0.69,0.72c0,0.397 0.309,0.72 0.69,0.72c0.381,0 0.69,-0.323 0.69,-0.72Z" style="stroke:#000;stroke-width:0.72px;"/><path d="M475.14,143.58c0,-0.397 -0.323,-0.72 -0.72,-0.72c-0.397,0 -0.72,0.323 -0.72,0.72c0,0.397 0.323,0.72 0.72,0.72c0.397,0 0.72,-0.323 0.72,-0.72Z" style="stroke:#000;stroke-width:0.72px;"/><path d="M1.74,129.33c0,-0.381 -0.309,-0.69 -0.69,-0.69c-0.381,0 -0.69,0.309 -0.69,0.69c0,0.381 0.309,0.69 0.69,0.69c0.381,0 0.69,-0.309 0.69,-0.69Z" style="stroke:#000;stroke-width:0.72px;"/><path d="M51.24,129.33c0,-0.381 -0.323,-0.69 -0.72,-0.69c-0.397,0 -0.72,0.309 -0.72,0.69c0,0.381 0.323,0.69 0.72,0.69c0.397,0 0.72,-0.309 0.72,-0.69Z" style="stroke:#000;stroke-width:0.72px;"/><path d="M101.94,129.33c0,-0.381 -0.309,-0.69 -0.69,-0.69c-0.381,0 -0.69,0.309 -0.69,0.69c0,0.381 0.309,0.69 0.69,0.69c0.381,0 0.69,-0.309 0.69,-0.69Z" style="stroke:#000;stroke-width:0.72px;"/><path d="M151.44,129.33c0,-0.381 -0.323,-0.69 -0.72,-0.69c-0.397,0 -0.72,0.309 -0.72,0.69c0,0.381 0.323,0.69 0.72,0.69c0.397,0 0.72,-0.309 0.72,-0.69Z" style="stroke:#000;stroke-width:0.72px;"/><path d="M201.72,129.33c0,-0.381 -0.309,-0.69 -0.69,-0.69c-0.381,0 -0.69,0.309 -0.69,0.69c0,0.381 0.309,0.69 0.69,0.69c0.381,0 0.69,-0.309 0.69,-0.69Z" style="stroke:#000;stroke-width:0.72px;"/><path d="M251.16,129.33c0,-0.381 -0.309,-0.69 -0.69,-0.69c-0.381,0 -0.69,0.309 -0.69,0.69c0,0.381 0.309,0.69 0.69,0.69c0.381,0 0.69,-0.309 0.69,-0.69Z" style="stroke:#000;stroke-width:0.72px;"/><path d="M301.02,129.33c0,-0.381 -0.309,-0.69 -0.69,-0.69c-0.381,0 -0.69,0.309 -0.69,0.69c0,0.381 0.309,0.69 0.69,0.69c0.381,0 0.69,-0.309 0.69,-0.69Z" style="stroke:#000;stroke-width:0.72px;"/><path d="M350.46,129.33c0,-0.381 -0.309,-0.69 -0.69,-0.69c-0.381,0 -0.69,0.309 -0.69,0.69c0,0.381 0.309,0.69 0.69,0.69c0.381,0 0.69,-0.309 0.69,-0.69Z" style="stroke:#000;stroke-width:0.72px;"/><path d="M400.74,129.33c0,-0.381 -0.309,-0.69 -0.69,-0.69c-0.381,0 -0.69,0.309 -0.69,0.69c0,0.381 0.309,0.69 0.69,0.69c0.381,0 0.69,-0.309 0.69,-0.69Z" style="stroke:#000;stroke-width:0.72px;"/><path d="M450.24,129.33c0,-0.381 -0.323,-0.69 -0.72,-0.69c-0.397,0 -0.72,0.309 -0.72,0.69c0,0.381 0.323,0.69 0.72,0.69c0.397,0 0.72,-0.309 0.72,-0.69Z" style="stroke:#000;stroke-width:0.72px;"/><path d="M500.52,129.33c0,-0.381 -0.309,-0.69 -0.69,-0.69c-0.381,0 -0.69,0.309 -0.69,0.69c0,0.381 0.309,0.69 0.69,0.69c0.381,0 0.69,-0.309 0.69,-0.69Z" style="stroke:#000;stroke-width:0.72px;"/><path d="M26.64,115.08c0,-0.397 -0.309,-0.72 -0.69,-0.72c-0.381,0 -0.69,0.323 -0.69,0.72c0,0.397 0.309,0.72 0.69,0.72c0.381,0 0.69,-0.323 0.69,-0.72Z" style="stroke:#000;stroke-width:0.72px;"/><path d="M76.14,115.08c0,-0.397 -0.323,-0.72 -0.72,-0.72c-0.397,0 -0.72,0.323 -0.72,0.72c0,0.397 0.323,0.72 0.72,0.72c0.397,0 0.72,-0.323 0.72,-0.72Z" style="stroke:#000;stroke-width:0.72px;"/><path d="M126.84,115.08c0,-0.397 -0.309,-0.72 -0.69,-0.72c-0.381,0 -0.69,0.323 -0.69,0.72c0,0.397 0.309,0.72 0.69,0.72c0.381,0 0.69,-0.323 0.69,-0.72Z" style="stroke:#000;stroke-width:0.72px;"/><path d="M176.34,115.08c0,-0.397 -0.323,-0.72 -0.72,-0.72c-0.397,0 -0.72,0.323 -0.72,0.72c0,0.397 0.323,0.72 0.72,0.72c0.397,0 0.72,-0.323 0.72,-0.72Z" style="stroke:#000;stroke-width:0.72px;"/><path d="M226.62,115.08c0,-0.397 -0.309,-0.72 -0.69,-0.72c-0.381,0 -0.69,0.323 -0.69,0.72c0,0.397 0.309,0.72 0.69,0.72c0.381,0 0.69,-0.323 0.69,-0.72Z" style="stroke:#000;stroke-width:0.72px;"/><path d="M276.06,115.08c0,-0.397 -0.309,-0.72 -0.69,-0.72c-0.381,0 -0.69,0.323 -0.69,0.72c0,0.397 0.309,0.72 0.69,0.72c0.381,0 0.69,-0.323 0.69,-0.72Z" style="stroke:#000;stroke-width:0.72px;"/><path d="M325.92,115.08c0,-0.397 -0.309,-0.72 -0.69,-0.72c-0.381,0 -0.69,0.323 -0.69,0.72c0,0.397 0.309,0.72 0.69,0.72c0.381,0 0.69,-0.323 0.69,-0.72Z" style="stroke:#000;stroke-width:0.72px;"/><path d="M375.36,115.08c0,-0.397 -0.309,-0.72 -0.69,-0.72c-0.381,0 -0.69,0.323 -0.69,0.72c0,0.397 0.309,0.72 0.69,0.72c0.381,0 0.69,-0.323 0.69,-0.72Z" style="stroke:#000;stroke-width:0.72px;"/><path d="M425.64,115.08c0,-0.397 -0.309,-0.72 -0.69,-0.72c-0.381,0 -0.69,0.323 -0.69,0.72c0,0.397 0.309,0.72 0.69,0.72c0.381,0 0.69,-0.323 0.69,-0.72Z" style="stroke:#000;stroke-width:0.72px;"/><path d="M475.14,115.08c0,-0.397 -0.323,-0.72 -0.72,-0.72c-0.397,0 -0.72,0.323 -0.72,0.72c0,0.397 0.323,0.72 0.72,0.72c0.397,0 0.72,-0.323 0.72,-0.72Z" style="stroke:#000;stroke-width:0.72px;"/><path d="M1.74,100.83c0,-0.381 -0.309,-0.69 -0.69,-0.69c-0.381,0 -0.69,0.309 -0.69,0.69c0,0.381 0.309,0.69 0.69,0.69c0.381,0 0.69,-0.309 0.69,-0.69Z" style="stroke:#000;stroke-width:0.72px;"/><path d="M51.24,100.83c0,-0.381 -0.323,-0.69 -0.72,-0.69c-0.397,0 -0.72,0.309 -0.72,0.69c0,0.381 0.323,0.69 0.72,0.69c0.397,0 0.72,-0.309 0.72,-0.69Z" style="stroke:#000;stroke-width:0.72px;"/><path d="M101.94,100.83c0,-0.381 -0.309,-0.69 -0.69,-0.69c-0.381,0 -0.69,0.309 -0.69,0.69c0,0.381 0.309,0.69 0.69,0.69c0.381,0 0.69,-0.309 0.69,-0.69Z" style="stroke:#000;stroke-width:0.72px;"/><path d="M151.44,100.83c0,-0.381 -0.323,-0.69 -0.72,-0.69c-0.397,0 -0.72,0.309 -0.72,0.69c0,0.381 0.323,0.69 0.72,0.69c0.397,0 0.72,-0.309 0.72,-0.69Z" style="stroke:#000;stroke-width:0.72px;"/><path d="M201.72,100.83c0,-0.381 -0.309,-0.69 -0.69,-0.69c-0.381,0 -0.69,0.309 -0.69,0.69c0,0.381 0.309,0.69 0.69,0.69c0.381,0 0.69,-0.309 0.69,-0.69Z" style="stroke:#000;stroke-width:0.72px;"/><path d="M251.16,100.83c0,-0.381 -0.309,-0.69 -0.69,-0.69c-0.381,0 -0.69,0.309 -0.69,0.69c0,0.381 0.309,0.69 0.69,0.69c0.381,0 0.69,-0.309 0.69,-0.69Z" style="stroke:#000;stroke-width:0.72px;"/><path d="M301.02,100.83c0,-0.381 -0.309,-0.69 -0.69,-0.69c-0.381,0 -0.69,0.309 -0.69,0.69c0,0.381 0.309,0.69 0.69,0.69c0.381,0 0.69,-0.309 0.69,-0.69Z" style="stroke:#000;stroke-width:0.72px;"/><path d="M350.46,100.83c0,-0.381 -0.309,-0.69 -0.69,-0.69c-0.381,0 -0.69,0.309 -0.69,0.69c0,0.381 0.309,0.69 0.69,0.69c0.381,0 0.69,-0.309 0.69,-0.69Z" style="stroke:#000;stroke-width:0.72px;"/><path d="M400.74,100.83c0,-0.381 -0.309,-0.69 -0.69,-0.69c-0.381,0 -0.69,0.309 -0.69,0.69c0,0.381 0.309,0.69 0.69,0.69c0.381,0 0.69,-0.309 0.69,-0.69Z" style="stroke:#000;stroke-width:0.72px;"/><path d="M450.24,100.83c0,-0.381 -0.323,-0.69 -0.72,-0.69c-0.397,0 -0.72,0.309 -0.72,0.69c0,0.381 0.323,0.69 0.72,0.69c0.397,0 0.72,-0.309 0.72,-0.69Z" style="stroke:#000;stroke-width:0.72px;"/><path d="M500.52,100.83c0,-0.381 -0.309,-0.69 -0.69,-0.69c-0.381,0 -0.69,0.309 -0.69,0.69c0,0.381 0.309,0.69 0.69,0.69c0.381,0 0.69,-0.309 0.69,-0.69Z" style="stroke:#000;stroke-width:0.72px;"/><path d="M26.64,86.58c0,-0.397 -0.309,-0.72 -0.69,-0.72c-0.381,0 -0.69,0.323 -0.69,0.72c0,0.397 0.309,0.72 0.69,0.72c0.381,0 0.69,-0.323 0.69,-0.72Z" style="stroke:#000;stroke-width:0.72px;"/><path d="M76.14,86.58c0,-0.397 -0.323,-0.72 -0.72,-0.72c-0.397,0 -0.72,0.323 -0.72,0.72c0,0.397 0.323,0.72 0.72,0.72c0.397,0 0.72,-0.323 0.72,-0.72Z" style="stroke:#000;stroke-width:0.72px;"/><path d="M126.84,86.58c0,-0.397 -0.309,-0.72 -0.69,-0.72c-0.381,0 -0.69,0.323 -0.69,0.72c0,0.397 0.309,0.72 0.69,0.72c0.381,0 0.69,-0.323 0.69,-0.72Z" style="stroke:#000;stroke-width:0.72px;"/><path d="M176.34,86.58c0,-0.397 -0.323,-0.72 -0.72,-0.72c-0.397,0 -0.72,0.323 -0.72,0.72c0,0.397 0.323,0.72 0.72,0.72c0.397,0 0.72,-0.323 0.72,-0.72Z" style="stroke:#000;stroke-width:0.72px;"/><path d="M226.62,86.58c0,-0.397 -0.309,-0.72 -0.69,-0.72c-0.381,0 -0.69,0.323 -0.69,0.72c0,0.397 0.309,0.72 0.69,0.72c0.381,0 0.69,-0.323 0.69,-0.72Z" style="stroke:#000;stroke-width:0.72px;"/><path d="M276.06,86.58c0,-0.397 -0.309,-0.72 -0.69,-0.72c-0.381,0 -0.69,0.323 -0.69,0.72c0,0.397 0.309,0.72 0.69,0.72c0.381,0 0.69,-0.323 0.69,-0.72Z" style="stroke:#000;stroke-width:0.72px;"/><path d="M325.92,86.58c0,-0.397 -0.309,-0.72 -0.69,-0.72c-0.381,0 -0.69,0.323 -0.69,0.72c0,0.397 0.309,0.72 0.69,0.72c0.381,0 0.69,-0.323 0.69,-0.72Z" style="stroke:#000;stroke-width:0.72px;"/><path d="M375.36,86.58c0,-0.397 -0.309,-0.72 -0.69,-0.72c-0.381,0 -0.69,0.323 -0.69,0.72c0,0.397 0.309,0.72 0.69,0.72c0.381,0 0.69,-0.323 0.69,-0.72Z" style="stroke:#000;stroke-width:0.72px;"/><path d="M425.64,86.58c0,-0.397 -0.309,-0.72 -0.69,-0.72c-0.381,0 -0.69,0.323 -0.69,0.72c0,0.397 0.309,0.72 0.69,0.72c0.381,0 0.69,-0.323 0.69,-0.72Z" style="stroke:#000;stroke-width:0.72px;"/><path d="M475.14,86.58c0,-0.397 -0.323,-0.72 -0.72,-0.72c-0.397,0 -0.72,0.323 -0.72,0.72c0,0.397 0.323,0.72 0.72,0.72c0.397,0 0.72,-0.323 0.72,-0.72Z" style="stroke:#000;stroke-width:0.72px;"/><path d="M1.74,72.33c0,-0.381 -0.309,-0.69 -0.69,-0.69c-0.381,0 -0.69,0.309 -0.69,0.69c0,0.381 0.309,0.69 0.69,0.69c0.381,0 0.69,-0.309 0.69,-0.69Z" style="stroke:#000;stroke-width:0.72px;"/><path d="M51.24,72.33c0,-0.381 -0.323,-0.69 -0.72,-0.69c-0.397,0 -0.72,0.309 -0.72,0.69c0,0.381 0.323,0.69 0.72,0.69c0.397,0 0.72,-0.309 0.72,-0.69Z" style="stroke:#000;stroke-width:0.72px;"/><path d="M101.94,72.33c0,-0.381 -0.309,-0.69 -0.69,-0.69c-0.381,0 -0.69,0.309 -0.69,0.69c0,0.381 0.309,0.69 0.69,0.69c0.381,0 0.69,-0.309 0.69,-0.69Z" style="stroke:#000;stroke-width:0.72px;"/><path d="M151.44,72.33c0,-0.381 -0.323,-0.69 -0.72,-0.69c-0.397,0 -0.72,0.309 -0.72,0.69c0,0.381 0.323,0.69 0.72,0.69c0.397,0 0.72,-0.309 0.72,-0.69Z" style="stroke:#000;stroke-width:0.72px;"/><path d="M201.72,72.33c0,-0.381 -0.309,-0.69 -0.69,-0.69c-0.381,0 -0.69,0.309 -0.69,0.69c0,0.381 0.309,0.69 0.69,0.69c0.381,0 0.69,-0.309 0.69,-0.69Z" style="stroke:#000;stroke-width:0.72px;"/><path d="M251.16,72.33c0,-0.381 -0.309,-0.69 -0.69,-0.69c-0.381,0 -0.69,0.309 -0.69,0.69c0,0.381 0.309,0.69 0.69,0.69c0.381,0 0.69,-0.309 0.69,-0.69Z" style="stroke:#000;stroke-width:0.72px;"/><path d="M301.02,72.33c0,-0.381 -0.309,-0.69 -0.69,-0.69c-0.381,0 -0.69,0.309 -0.69,0.69c0,0.381 0.309,0.69 0.69,0.69c0.381,0 0.69,-0.309 0.69,-0.69Z" style="stroke:#000;stroke-width:0.72px;"/><path d="M350.46,72.33c0,-0.381 -0.309,-0.69 -0.69,-0.69c-0.381,0 -0.69,0.309 -0.69,0.69c0,0.381 0.309,0.69 0.69,0.69c0.381,0 0.69,-0.309 0.69,-0.69Z" style="stroke:#000;stroke-width:0.72px;"/><path d="M400.74,72.33c0,-0.381 -0.309,-0.69 -0.69,-0.69c-0.381,0 -0.69,0.309 -0.69,0.69c0,0.381 0.309,0.69 0.69,0.69c0.381,0 0.69,-0.309 0.69,-0.69Z" style="stroke:#000;stroke-width:0.72px;"/><path d="M450.24,72.33c0,-0.381 -0.323,-0.69 -0.72,-0.69c-0.397,0 -0.72,0.309 -0.72,0.69c0,0.381 0.323,0.69 0.72,0.69c0.397,0 0.72,-0.309 0.72,-0.69Z" style="stroke:#000;stroke-width:0.72px;"/><path d="M500.52,72.33c0,-0.381 -0.309,-0.69 -0.69,-0.69c-0.381,0 -0.69,0.309 -0.69,0.69c0,0.381 0.309,0.69 0.69,0.69c0.381,0 0.69,-0.309 0.69,-0.69Z" style="stroke:#000;stroke-width:0.72px;"/><path d="M26.64,58.08c0,-0.397 -0.309,-0.72 -0.69,-0.72c-0.381,0 -0.69,0.323 -0.69,0.72c0,0.397 0.309,0.72 0.69,0.72c0.381,0 0.69,-0.323 0.69,-0.72Z" style="stroke:#000;stroke-width:0.72px;"/><path d="M76.14,58.08c0,-0.397 -0.323,-0.72 -0.72,-0.72c-0.397,0 -0.72,0.323 -0.72,0.72c0,0.397 0.323,0.72 0.72,0.72c0.397,0 0.72,-0.323 0.72,-0.72Z" style="stroke:#000;stroke-width:0.72px;"/><path d="M126.84,58.08c0,-0.397 -0.309,-0.72 -0.69,-0.72c-0.381,0 -0.69,0.323 -0.69,0.72c0,0.397 0.309,0.72 0.69,0.72c0.381,0 0.69,-0.323 0.69,-0.72Z" style="stroke:#000;stroke-width:0.72px;"/><path d="M176.34,58.08c0,-0.397 -0.323,-0.72 -0.72,-0.72c-0.397,0 -0.72,0.323 -0.72,0.72c0,0.397 0.323,0.72 0.72,0.72c0.397,0 0.72,-0.323 0.72,-0.72Z" style="stroke:#000;stroke-width:0.72px;"/><path d="M226.62,58.08c0,-0.397 -0.309,-0.72 -0.69,-0.72c-0.381,0 -0.69,0.323 -0.69,0.72c0,0.397 0.309,0.72 0.69,0.72c0.381,0 0.69,-0.323 0.69,-0.72Z" style="stroke:#000;stroke-width:0.72px;"/><path d="M276.06,58.08c0,-0.397 -0.309,-0.72 -0.69,-0.72c-0.381,0 -0.69,0.323 -0.69,0.72c0,0.397 0.309,0.72 0.69,0.72c0.381,0 0.69,-0.323 0.69,-0.72Z" style="stroke:#000;stroke-width:0.72px;"/><path d="M325.92,58.08c0,-0.397 -0.309,-0.72 -0.69,-0.72c-0.381,0 -0.69,0.323 -0.69,0.72c0,0.397 0.309,0.72 0.69,0.72c0.381,0 0.69,-0.323 0.69,-0.72Z" style="stroke:#000;stroke-width:0.72px;"/><path d="M375.36,58.08c0,-0.397 -0.309,-0.72 -0.69,-0.72c-0.381,0 -0.69,0.323 -0.69,0.72c0,0.397 0.309,0.72 0.69,0.72c0.381,0 0.69,-0.323 0.69,-0.72Z" style="stroke:#000;stroke-width:0.72px;"/><path d="M425.64,58.08c0,-0.397 -0.309,-0.72 -0.69,-0.72c-0.381,0 -0.69,0.323 -0.69,0.72c0,0.397 0.309,0.72 0.69,0.72c0.381,0 0.69,-0.323 0.69,-0.72Z" style="stroke:#000;stroke-width:0.72px;"/><path d="M475.14,58.08c0,-0.397 -0.323,-0.72 -0.72,-0.72c-0.397,0 -0.72,0.323 -0.72,0.72c0,0.397 0.323,0.72 0.72,0.72c0.397,0 0.72,-0.323 0.72,-0.72Z" style="stroke:#000;stroke-width:0.72px;"/><path d="M1.74,43.83c0,-0.381 -0.309,-0.69 -0.69,-0.69c-0.381,0 -0.69,0.309 -0.69,0.69c0,0.381 0.309,0.69 0.69,0.69c0.381,0 0.69,-0.309 0.69,-0.69Z" style="stroke:#000;stroke-width:0.72px;"/><path d="M51.24,43.83c0,-0.381 -0.323,-0.69 -0.72,-0.69c-0.397,0 -0.72,0.309 -0.72,0.69c0,0.381 0.323,0.69 0.72,0.69c0.397,0 0.72,-0.309 0.72,-0.69Z" style="stroke:#000;stroke-width:0.72px;"/><path d="M101.94,43.83c0,-0.381 -0.309,-0.69 -0.69,-0.69c-0.381,0 -0.69,0.309 -0.69,0.69c0,0.381 0.309,0.69 0.69,0.69c0.381,0 0.69,-0.309 0.69,-0.69Z" style="stroke:#000;stroke-width:0.72px;"/><path d="M151.44,43.83c0,-0.381 -0.323,-0.69 -0.72,-0.69c-0.397,0 -0.72,0.309 -0.72,0.69c0,0.381 0.323,0.69 0.72,0.69c0.397,0 0.72,-0.309 0.72,-0.69Z" style="stroke:#000;stroke-width:0.72px;"/><path d="M201.72,43.83c0,-0.381 -0.309,-0.69 -0.69,-0.69c-0.381,0 -0.69,0.309 -0.69,0.69c0,0.381 0.309,0.69 0.69,0.69c0.381,0 0.69,-0.309 0.69,-0.69Z" style="stroke:#000;stroke-width:0.72px;"/><path d="M251.16,43.83c0,-0.381 -0.309,-0.69 -0.69,-0.69c-0.381,0 -0.69,0.309 -0.69,0.69c0,0.381 0.309,0.69 0.69,0.69c0.381,0 0.69,-0.309 0.69,-0.69Z" style="stroke:#000;stroke-width:0.72px;"/><path d="M301.02,43.83c0,-0.381 -0.309,-0.69 -0.69,-0.69c-0.381,0 -0.69,0.309 -0.69,0.69c0,0.381 0.309,0.69 0.69,0.69c0.381,0 0.69,-0.309 0.69,-0.69Z" style="stroke:#000;stroke-width:0.72px;"/><path d="M350.46,43.83c0,-0.381 -0.309,-0.69 -0.69,-0.69c-0.381,0 -0.69,0.309 -0.69,0.69c0,0.381 0.309,0.69 0.69,0.69c0.381,0 0.69,-0.309 0.69,-0.69Z" style="stroke:#000;stroke-width:0.72px;"/><path d="M400.74,43.83c0,-0.381 -0.309,-0.69 -0.69,-0.69c-0.381,0 -0.69,0.309 -0.69,0.69c0,0.381 0.309,0.69 0.69,0.69c0.381,0 0.69,-0.309 0.69,-0.69Z" style="stroke:#000;stroke-width:0.72px;"/><path d="M450.24,43.83c0,-0.381 -0.323,-0.69 -0.72,-0.69c-0.397,0 -0.72,0.309 -0.72,0.69c0,0.381 0.323,0.69 0.72,0.69c0.397,0 0.72,-0.309 0.72,-0.69Z" style="stroke:#000;stroke-width:0.72px;"/><path d="M500.52,43.83c0,-0.381 -0.309,-0.69 -0.69,-0.69c-0.381,0 -0.69,0.309 -0.69,0.69c0,0.381 0.309,0.69 0.69,0.69c0.381,0 0.69,-0.309 0.69,-0.69Z" style="stroke:#000;stroke-width:0.72px;"/><path d="M26.64,29.58c0,-0.397 -0.309,-0.72 -0.69,-0.72c-0.381,0 -0.69,0.323 -0.69,0.72c0,0.397 0.309,0.72 0.69,0.72c0.381,0 0.69,-0.323 0.69,-0.72Z" style="stroke:#000;stroke-width:0.72px;"/><path d="M76.14,29.58c0,-0.397 -0.323,-0.72 -0.72,-0.72c-0.397,0 -0.72,0.323 -0.72,0.72c0,0.397 0.323,0.72 0.72,0.72c0.397,0 0.72,-0.323 0.72,-0.72Z" style="stroke:#000;stroke-width:0.72px;"/><path d="M126.84,29.58c0,-0.397 -0.309,-0.72 -0.69,-0.72c-0.381,0 -0.69,0.323 -0.69,0.72c0,0.397 0.309,0.72 0.69,0.72c0.381,0 0.69,-0.323 0.69,-0.72Z" style="stroke:#000;stroke-width:0.72px;"/><path d="M176.34,29.58c0,-0.397 -0.323,-0.72 -0.72,-0.72c-0.397,0 -0.72,0.323 -0.72,0.72c0,0.397 0.323,0.72 0.72,0.72c0.397,0 0.72,-0.323 0.72,-0.72Z" style="stroke:#000;stroke-width:0.72px;"/><path d="M226.62,29.58c0,-0.397 -0.309,-0.72 -0.69,-0.72c-0.381,0 -0.69,0.323 -0.69,0.72c0,0.397 0.309,0.72 0.69,0.72c0.381,0 0.69,-0.323 0.69,-0.72Z" style="stroke:#000;stroke-width:0.72px;"/><path d="M276.06,29.58c0,-0.397 -0.309,-0.72 -0.69,-0.72c-0.381,0 -0.69,0.323 -0.69,0.72c0,0.397 0.309,0.72 0.69,0.72c0.381,0 0.69,-0.323 0.69,-0.72Z" style="stroke:#000;stroke-width:0.72px;"/><path d="M325.92,29.58c0,-0.397 -0.309,-0.72 -0.69,-0.72c-0.381,0 -0.69,0.323 -0.69,0.72c0,0.397 0.309,0.72 0.69,0.72c0.381,0 0.69,-0.323 0.69,-0.72Z" style="stroke:#000;stroke-width:0.72px;"/><path d="M375.36,29.58c0,-0.397 -0.309,-0.72 -0.69,-0.72c-0.381,0 -0.69,0.323 -0.69,0.72c0,0.397 0.309,0.72 0.69,0.72c0.381,0 0.69,-0.323 0.69,-0.72Z" style="stroke:#000;stroke-width:0.72px;"/><path d="M425.64,29.58c0,-0.397 -0.309,-0.72 -0.69,-0.72c-0.381,0 -0.69,0.323 -0.69,0.72c0,0.397 0.309,0.72 0.69,0.72c0.381,0 0.69,-0.323 0.69,-0.72Z" style="stroke:#000;stroke-width:0.72px;"/><path d="M475.14,29.58c0,-0.397 -0.323,-0.72 -0.72,-0.72c-0.397,0 -0.72,0.323 -0.72,0.72c0,0.397 0.323,0.72 0.72,0.72c0.397,0 0.72,-0.323 0.72,-0.72Z" style="stroke:#000;stroke-width:0.72px;"/><path d="M1.74,15.33c0,-0.381 -0.309,-0.69 -0.69,-0.69c-0.381,0 -0.69,0.309 -0.69,0.69c0,0.381 0.309,0.69 0.69,0.69c0.381,0 0.69,-0.309 0.69,-0.69Z" style="stroke:#000;stroke-width:0.72px;"/><path d="M51.24,15.33c0,-0.381 -0.323,-0.69 -0.72,-0.69c-0.397,0 -0.72,0.309 -0.72,0.69c0,0.381 0.323,0.69 0.72,0.69c0.397,0 0.72,-0.309 0.72,-0.69Z" style="stroke:#000;stroke-width:0.72px;"/><path d="M101.94,15.33c0,-0.381 -0.309,-0.69 -0.69,-0.69c-0.381,0 -0.69,0.309 -0.69,0.69c0,0.381 0.309,0.69 0.69,0.69c0.381,0 0.69,-0.309 0.69,-0.69Z" style="stroke:#000;stroke-width:0.72px;"/><path d="M151.44,15.33c0,-0.381 -0.323,-0.69 -0.72,-0.69c-0.397,0 -0.72,0.309 -0.72,0.69c0,0.381 0.323,0.69 0.72,0.69c0.397,0 0.72,-0.309 0.72,-0.69Z" style="stroke:#000;stroke-width:0.72px;"/><path d="M201.72,15.33c0,-0.381 -0.309,-0.69 -0.69,-0.69c-0.381,0 -0.69,0.309 -0.69,0.69c0,0.381 0.309,0.69 0.69,0.69c0.381,0 0.69,-0.309 0.69,-0.69Z" style="stroke:#000;stroke-width:0.72px;"/><path d="M251.16,15.33c0,-0.381 -0.309,-0.69 -0.69,-0.69c-0.381,0 -0.69,0.309 -0.69,0.69c0,0.381 0.309,0.69 0.69,0.69c0.381,0 0.69,-0.309 0.69,-0.69Z" style="stroke:#000;stroke-width:0.72px;"/><path d="M301.02,15.33c0,-0.381 -0.309,-0.69 -0.69,-0.69c-0.381,0 -0.69,0.309 -0.69,0.69c0,0.381 0.309,0.69 0.69,0.69c0.381,0 0.69,-0.309 0.69,-0.69Z" style="stroke:#000;stroke-width:0.72px;"/><path d="M350.46,15.33c0,-0.381 -0.309,-0.69 -0.69,-0.69c-0.381,0 -0.69,0.309 -0.69,0.69c0,0.381 0.309,0.69 0.69,0.69c0.381,0 0.69,-0.309 0.69,-0.69Z" style="stroke:#000;stroke-width:0.72px;"/><path d="M400.74,15.33c0,-0.381 -0.309,-0.69 -0.69,-0.69c-0.381,0 -0.69,0.309 -0.69,0.69c0,0.381 0.309,0.69 0.69,0.69c0.381,0 0.69,-0.309 0.69,-0.69Z" style="stroke:#000;stroke-width:0.72px;"/><path d="M450.24,15.33c0,-0.381 -0.323,-0.69 -0.72,-0.69c-0.397,0 -0.72,0.309 -0.72,0.69c0,0.381 0.323,0.69 0.72,0.69c0.397,0 0.72,-0.309 0.72,-0.69Z" style="stroke:#000;stroke-width:0.72px;"/><path d="M500.52,15.33c0,-0.381 -0.309,-0.69 -0.69,-0.69c-0.381,0 -0.69,0.309 -0.69,0.69c0,0.381 0.309,0.69 0.69,0.69c0.381,0 0.69,-0.309 0.69,-0.69Z" style="stroke:#000;stroke-width:0.72px;"/><path d="M26.64,1.08c0,-0.397 -0.309,-0.72 -0.69,-0.72c-0.381,0 -0.69,0.323 -0.69,0.72c0,0.397 0.309,0.72 0.69,0.72c0.381,0 0.69,-0.323 0.69,-0.72Z" style="stroke:#000;stroke-width:0.72px;"/><path d="M76.14,1.08c0,-0.397 -0.323,-0.72 -0.72,-0.72c-0.397,0 -0.72,0.323 -0.72,0.72c0,0.397 0.323,0.72 0.72,0.72c0.397,0 0.72,-0.323 0.72,-0.72Z" style="stroke:#000;stroke-width:0.72px;"/><path d="M126.84,1.08c0,-0.397 -0.309,-0.72 -0.69,-0.72c-0.381,0 -0.69,0.323 -0.69,0.72c0,0.397 0.309,0.72 0.69,0.72c0.381,0 0.69,-0.323 0.69,-0.72Z" style="stroke:#000;stroke-width:0.72px;"/><path d="M176.34,1.08c0,-0.397 -0.323,-0.72 -0.72,-0.72c-0.397,0 -0.72,0.323 -0.72,0.72c0,0.397 0.323,0.72 0.72,0.72c0.397,0 0.72,-0.323 0.72,-0.72Z" style="stroke:#000;stroke-width:0.72px;"/><path d="M226.62,1.08c0,-0.397 -0.309,-0.72 -0.69,-0.72c-0.381,0 -0.69,0.323 -0.69,0.72c0,0.397 0.309,0.72 0.69,0.72c0.381,0 0.69,-0.323 0.69,-0.72Z" style="stroke:#000;stroke-width:0.72px;"/><path d="M276.06,1.08c0,-0.397 -0.309,-0.72 -0.69,-0.72c-0.381,0 -0.69,0.323 -0.69,0.72c0,0.397 0.309,0.72 0.69,0.72c0.381,0 0.69,-0.323 0.69,-0.72Z" style="stroke:#000;stroke-width:0.72px;"/><path d="M325.92,1.08c0,-0.397 -0.309,-0.72 -0.69,-0.72c-0.381,0 -0.69,0.323 -0.69,0.72c0,0.397 0.309,0.72 0.69,0.72c0.381,0 0.69,-0.323 0.69,-0.72Z" style="stroke:#000;stroke-width:0.72px;"/><path d="M375.36,1.08c0,-0.397 -0.309,-0.72 -0.69,-0.72c-0.381,0 -0.69,0.323 -0.69,0.72c0,0.397 0.309,0.72 0.69,0.72c0.381,0 0.69,-0.323 0.69,-0.72Z" style="stroke:#000;stroke-width:0.72px;"/><path d="M425.64,1.08c0,-0.397 -0.309,-0.72 -0.69,-0.72c-0.381,0 -0.69,0.323 -0.69,0.72c0,0.397 0.309,0.72 0.69,0.72c0.381,0 0.69,-0.323 0.69,-0.72Z" style="stroke:#000;stroke-width:0.72px;"/><path d="M475.14,1.08c0,-0.397 -0.323,-0.72 -0.72,-0.72c-0.397,0 -0.72,0.323 -0.72,0.72c0,0.397 0.323,0.72 0.72,0.72c0.397,0 0.72,-0.323 0.72,-0.72Z" style="stroke:#000;stroke-width:0.72px;"/></g></svg>