<svg xmlns="http://www.w3.org/2000/svg" width="141" height="141" viewBox="0 0 141 141">
  <g id="Group_741" data-name="Group 741" transform="translate(2865 -3636)">
    <g id="Ellipse_305" data-name="Ellipse 305" transform="translate(-2865 3636)" fill="#fff" stroke="#707070" stroke-width="1">
      <circle cx="70.5" cy="70.5" r="70.5" stroke="none"/>
      <circle cx="70.5" cy="70.5" r="70" fill="none"/>
    </g>
    <path id="Union_53" data-name="Union 53" d="M42.026,29.47c0-10.294,8.138-18.67,18.141-18.67s18.141,8.375,18.141,18.67v.369a1.773,1.773,0,0,1-1.775,1.77H51.095a9.449,9.449,0,0,0,9.071,7.711,8.453,8.453,0,0,0,6.094-2.4.755.755,0,0,1,.526-.217l8.917.022a.766.766,0,0,1,.692,1.1,18.853,18.853,0,0,1-1.143,2.023,17.988,17.988,0,0,1-15.087,8.3C50.164,48.14,42.026,39.765,42.026,29.47Zm10.371-5.4H67.936a9,9,0,0,0-15.539,0ZM1.71,47.621A1.708,1.708,0,0,1,0,45.916V1.705A1.708,1.708,0,0,1,1.71,0H21.874A13.275,13.275,0,0,1,35.225,12.921a13.036,13.036,0,0,1-2.085,7.3,15.057,15.057,0,0,1,6.411,12.381A15.228,15.228,0,0,1,24.233,47.621ZM8.846,38.8H24.43a6.258,6.258,0,1,0,0-12.517H8.846Zm0-21.336h13.2a4.323,4.323,0,1,0,0-8.646H8.846ZM51.614,8.609a1.357,1.357,0,0,1-1.359-1.355V3.23a1.357,1.357,0,0,1,1.359-1.355H67.7A1.357,1.357,0,0,1,69.063,3.23V7.254A1.357,1.357,0,0,1,67.7,8.609Z" transform="translate(-2834.309 3682.554)" fill="#39d9df"/>
  </g>
</svg>
