<svg xmlns="http://www.w3.org/2000/svg" width="141" height="141" viewBox="0 0 141 141">
  <g id="Group_750" data-name="Group 750" transform="translate(9707 -3306)">
    <circle id="Ellipse_305" data-name="Ellipse 305" cx="70.5" cy="70.5" r="70.5" transform="translate(-9707 3306)" fill="#3ad9df"/>
    <path id="Path_827" data-name="Path 827" d="M33.14,108.113a13.034,13.034,0,0,0,2.085-7.3A13.275,13.275,0,0,0,21.873,87.888H1.71A1.708,1.708,0,0,0,0,89.593V133.8a1.708,1.708,0,0,0,1.71,1.705H24.233a15.228,15.228,0,0,0,15.319-15.016A15.057,15.057,0,0,0,33.14,108.113ZM8.846,96.708h13.2a4.323,4.323,0,1,1,0,8.646H8.846ZM24.43,126.69H8.846V114.173H24.43a6.258,6.258,0,1,1,0,12.517Z" transform="translate(-9676.31 3264.667)" fill="#fff"/>
    <path id="Path_828" data-name="Path 828" d="M282.318,169.978c0-10.295-8.138-18.67-18.141-18.67s-18.141,8.375-18.141,18.67,8.138,18.67,18.141,18.67a17.987,17.987,0,0,0,15.087-8.3,18.829,18.829,0,0,0,1.143-2.023.766.766,0,0,0-.692-1.1l-8.917-.022a.754.754,0,0,0-.526.217,8.452,8.452,0,0,1-6.094,2.4,9.449,9.449,0,0,1-9.071-7.71h25.437a1.773,1.773,0,0,0,1.775-1.77Zm-18.141-9.85a9.174,9.174,0,0,1,7.769,4.453H256.408A9.174,9.174,0,0,1,264.178,160.128Z" transform="translate(-9880.321 3212.047)" fill="#fff"/>
    <path id="Path_829" data-name="Path 829" d="M311.664,105.628h-16.09a1.357,1.357,0,0,1-1.359-1.355v-4.025a1.357,1.357,0,0,1,1.359-1.355h16.09a1.357,1.357,0,0,1,1.359,1.355v4.025A1.357,1.357,0,0,1,311.664,105.628Z" transform="translate(-9920.27 3255.536)" fill="#fff"/>
  </g>
</svg>
