<svg xmlns="http://www.w3.org/2000/svg" width="141" height="142" viewBox="0 0 141 142">
  <g id="Group_749" data-name="Group 749" transform="translate(10040 -3306)">
    <ellipse id="Ellipse_306" data-name="Ellipse 306" cx="70.5" cy="71" rx="70.5" ry="71" transform="translate(-10040 3306)" fill="#3ad9df"/>
    <path id="Path_808" data-name="Path 808" d="M54.871,0H23.282A23.308,23.308,0,0,0,0,23.282V54.871A23.308,23.308,0,0,0,23.282,78.153H54.871A23.308,23.308,0,0,0,78.153,54.871V23.282A23.309,23.309,0,0,0,54.871,0ZM70.29,54.871a15.42,15.42,0,0,1-15.42,15.42H23.282a15.42,15.42,0,0,1-15.42-15.42V23.282a15.42,15.42,0,0,1,15.42-15.42H54.871a15.42,15.42,0,0,1,15.42,15.42V54.871Z" transform="translate(-10008.334 3337.43)" fill="#fff"/>
    <path id="Path_809" data-name="Path 809" d="M153.213,133a20.213,20.213,0,1,0,20.213,20.213A20.236,20.236,0,0,0,153.213,133Zm0,32.564a12.351,12.351,0,1,1,12.351-12.351A12.351,12.351,0,0,1,153.213,165.564Z" transform="translate(-10122.471 3223.293)" fill="#fff"/>
    <ellipse id="Ellipse_298" data-name="Ellipse 298" cx="4.843" cy="4.843" rx="4.843" ry="4.843" transform="translate(-9953.85 3351.602)" fill="#fff"/>
  </g>
</svg>
