<svg xmlns="http://www.w3.org/2000/svg" width="141" height="142" viewBox="0 0 141 142">
  <g id="Group_744" data-name="Group 744" transform="translate(3198 -3636)">
    <g id="Ellipse_306" data-name="Ellipse 306" transform="translate(-3198 3636)" fill="#fff" stroke="#707070" stroke-width="1">
      <ellipse cx="70.5" cy="71" rx="70.5" ry="71" stroke="none"/>
      <ellipse cx="70.5" cy="71" rx="70" ry="70.5" fill="none"/>
    </g>
    <path id="Union_54" data-name="Union 54" d="M3189.615-3589.278a23.308,23.308,0,0,1-23.281-23.281v-31.589a23.308,23.308,0,0,1,23.281-23.282H3221.2a23.309,23.309,0,0,1,23.282,23.282v31.589a23.308,23.308,0,0,1-23.282,23.281Zm-15.419-54.871v31.589a15.42,15.42,0,0,0,15.419,15.419H3221.2a15.42,15.42,0,0,0,15.42-15.419v-31.589a15.42,15.42,0,0,0-15.42-15.42h-31.589A15.42,15.42,0,0,0,3174.2-3644.148Zm11,15.794a20.236,20.236,0,0,1,20.214-20.212,20.235,20.235,0,0,1,20.212,20.212,20.236,20.236,0,0,1-20.212,20.214A20.237,20.237,0,0,1,3185.2-3628.354Zm7.862,0A12.351,12.351,0,0,0,3205.411-3616a12.351,12.351,0,0,0,12.351-12.351,12.351,12.351,0,0,0-12.351-12.351A12.351,12.351,0,0,0,3193.059-3628.354Zm27.76-20.061a4.843,4.843,0,0,1,4.843-4.844,4.844,4.844,0,0,1,4.844,4.844,4.844,4.844,0,0,1-4.844,4.843A4.843,4.843,0,0,1,3220.819-3648.415Z" transform="translate(-6332.667 7334.86)" fill="#39d9df"/>
  </g>
</svg>
