<svg xmlns="http://www.w3.org/2000/svg" width="142" height="142" viewBox="0 0 142 142">
  <g id="Group_751" data-name="Group 751" transform="translate(9365 -3306)">
    <circle id="Ellipse_304" data-name="Ellipse 304" cx="71" cy="71" r="71" transform="translate(-9365 3306)" fill="#3ad9df"/>
    <path id="Path_825" data-name="Path 825" d="M-257.6-156.6a5.275,5.275,0,0,0,3.758-1.926l25.654-25.5c-1.149-1.025-3.2-1.522-6.056-1.522h-47.425c-2.516,0-4.348.466-5.435,1.4l25.778,25.623A5.28,5.28,0,0,0-257.6-156.6Zm-32.455,18.045,21.275-21.15-21.212-20.9a9.737,9.737,0,0,0-.9,4.845v32.486A9.826,9.826,0,0,0-290.055-138.557Zm64.911-.062a10.493,10.493,0,0,0,.776-4.659v-32.486a10.049,10.049,0,0,0-.87-4.783l-21.15,20.84Zm-55.873,5.156h47.425c2.64,0,4.5-.528,5.621-1.522l-21.678-21.523-1.739,1.739c-2.05,1.988-4.006,2.919-6.212,2.919-2.174,0-4.162-.932-6.212-2.919l-1.739-1.739L-287.2-135.016C-285.986-133.991-283.906-133.463-281.017-133.463Z" transform="translate(-9036.27 3536.481)" fill="#fff"/>
  </g>
</svg>
