<svg xmlns="http://www.w3.org/2000/svg" width="18.826" height="14.739" viewBox="0 0 18.826 14.739">
  <path id="Path_807" data-name="Path 807" d="M251.851,18.38h13.421c1.644,0,2.61-.967,2.61-2.777V6.409a2.487,2.487,0,0,0-2.795-2.769H251.666a2.435,2.435,0,0,0-2.61,2.769V15.6A2.494,2.494,0,0,0,251.851,18.38Zm5.713-7.146-5.95-5.871a1.375,1.375,0,0,1,.272-.018h13.175a1.466,1.466,0,0,1,.281.018L259.4,11.234a1.126,1.126,0,0,1-1.837,0Zm-6.829-4.605,4.4,4.333-4.4,4.368Zm11.083,4.333L266.2,6.646V15.3Zm-9.932,5.713a1.874,1.874,0,0,1-.325-.026l4.667-4.623.413.4a2.4,2.4,0,0,0,3.683,0l.413-.4,4.658,4.623a2.057,2.057,0,0,1-.334.026Z" transform="translate(-249.056 -3.641)"/>
</svg>
