<svg xmlns="http://www.w3.org/2000/svg" width="141" height="142" viewBox="0 0 141 142">
  <g id="Group_752" data-name="Group 752" transform="translate(9046 -3306)">
    <ellipse id="Ellipse_303" data-name="Ellipse 303" cx="70.5" cy="71" rx="70.5" ry="71" transform="translate(-9046 3306)" fill="#3ad9df"/>
    <path id="Path_826" data-name="Path 826" d="M-351.349-238.36c9.6,9.632,21.239,17.018,30.735,17.018a14.136,14.136,0,0,0,10.994-4.8,9.774,9.774,0,0,0,2.791-6.365,5.483,5.483,0,0,0-2.383-4.7l-9.9-7.046a7.191,7.191,0,0,0-4.084-1.634c-1.532,0-2.859.885-4.357,2.349l-2.349,2.349a1.719,1.719,0,0,1-1.259.511,3.2,3.2,0,0,1-1.361-.374c-2.042-1.123-5.514-4.118-8.747-7.352s-6.263-6.739-7.352-8.781A2.755,2.755,0,0,1-349-258.51a1.747,1.747,0,0,1,.477-1.225l2.349-2.383c1.464-1.532,2.349-2.859,2.349-4.391a7.278,7.278,0,0,0-1.634-4.084l-6.977-9.8a5.8,5.8,0,0,0-4.867-2.451,9.143,9.143,0,0,0-6.3,2.791,14.649,14.649,0,0,0-4.663,11.062C-368.265-259.5-360.981-247.959-351.349-238.36Z" transform="translate(-8637.761 3628.883)" fill="#fff"/>
  </g>
</svg>
